<svg xmlns="http://www.w3.org/2000/svg" xmlns:xlink="http://www.w3.org/1999/xlink" width="500" zoomAndPan="magnify" viewBox="0 0 375 374.999991" height="500" preserveAspectRatio="xMidYMid meet" version="1.2"><defs><clipPath id="dce2ce7c65"><path d="M 43.890625 43.890625 L 331.105469 43.890625 L 331.105469 331.105469 L 43.890625 331.105469 Z M 43.890625 43.890625 "/></clipPath><clipPath id="a301205cce"><path d="M 187.496094 43.890625 C 108.1875 43.890625 43.890625 108.1875 43.890625 187.496094 C 43.890625 266.808594 108.1875 331.105469 187.496094 331.105469 C 266.808594 331.105469 331.105469 266.808594 331.105469 187.496094 C 331.105469 108.1875 266.808594 43.890625 187.496094 43.890625 Z M 187.496094 43.890625 "/></clipPath><clipPath id="5dcdaf96f2"><path d="M 158 57 L 217.6875 57 L 217.6875 131.464844 L 158 131.464844 Z M 158 57 "/></clipPath><clipPath id="55517b3042"><path d="M 158 57 L 217.6875 57 L 217.6875 131.464844 L 158 131.464844 Z M 158 57 "/></clipPath></defs><g id="2818615062"><g clip-rule="nonzero" clip-path="url(#dce2ce7c65)"><g clip-rule="nonzero" clip-path="url(#a301205cce)"><path style="fill:none;stroke-width:8;stroke-linecap:butt;stroke-linejoin:miter;stroke:#000000;stroke-opacity:1;stroke-miterlimit:4;" d="M 191.474053 0.0000755762 C 85.729247 0.0000755762 0.0000695762 85.729253 0.0000695762 191.474059 C 0.0000695762 297.224072 85.729247 382.95325 191.474053 382.95325 C 297.224066 382.95325 382.953244 297.224072 382.953244 191.474059 C 382.953244 85.729253 297.224066 0.0000755762 191.474053 0.0000755762 Z M 191.474053 0.0000755762 " transform="matrix(0.75,0,0,0.75,43.890573,43.890568)"/></g></g><g style="fill:#000000;fill-opacity:1;"><g transform="translate(50.206584, 197.347619)"><path style="stroke:none" d="M 47.25 0 L 38.28125 0 L 11.65625 -32.578125 L 11.328125 -32.578125 L 11.328125 0 L 5.765625 0 L 5.765625 -37.125 L 14.71875 -37.125 L 41.21875 -4.734375 L 41.546875 -4.734375 L 41.546875 -37.125 L 47.25 -37.125 Z M 47.25 0 "/></g></g><g style="fill:#000000;fill-opacity:1;"><g transform="translate(103.214732, 197.347619)"><path style="stroke:none" d="M 31.109375 0 L 5.765625 0 L 5.765625 -37.125 L 29.578125 -37.125 C 32.691406 -37.125 35.484375 -36.8125 37.953125 -36.1875 C 40.429688 -35.570312 42.382812 -34.625 43.8125 -33.34375 C 45.25 -32.070312 45.96875 -30.429688 45.96875 -28.421875 L 45.96875 -27.40625 C 45.96875 -26.207031 45.582031 -25.03125 44.8125 -23.875 C 44.039062 -22.726562 42.992188 -21.726562 41.671875 -20.875 C 40.347656 -20.019531 38.875 -19.460938 37.25 -19.203125 C 39.050781 -18.859375 40.6875 -18.269531 42.15625 -17.4375 C 43.625 -16.613281 44.804688 -15.644531 45.703125 -14.53125 C 46.597656 -13.414062 47.046875 -12.265625 47.046875 -11.078125 L 47.046875 -9.53125 C 47.046875 -7.488281 46.320312 -5.75 44.875 -4.3125 C 43.425781 -2.882812 41.492188 -1.804688 39.078125 -1.078125 C 36.671875 -0.359375 34.015625 0 31.109375 0 Z M 40.078125 -27.140625 L 40.078125 -27.40625 C 40.078125 -28.632812 39.742188 -29.585938 39.078125 -30.265625 C 38.421875 -30.953125 37.554688 -31.457031 36.484375 -31.78125 C 35.421875 -32.101562 34.269531 -32.296875 33.03125 -32.359375 C 31.789062 -32.421875 30.617188 -32.453125 29.515625 -32.453125 L 11.328125 -32.453125 L 11.328125 -21.375 L 29.453125 -21.375 C 30.429688 -21.375 31.523438 -21.4375 32.734375 -21.5625 C 33.953125 -21.695312 35.113281 -21.957031 36.21875 -22.34375 C 37.332031 -22.726562 38.253906 -23.300781 38.984375 -24.0625 C 39.710938 -24.832031 40.078125 -25.859375 40.078125 -27.140625 Z M 11.328125 -4.671875 L 29.890625 -4.671875 C 30.921875 -4.671875 32.070312 -4.722656 33.34375 -4.828125 C 34.625 -4.941406 35.851562 -5.195312 37.03125 -5.59375 C 38.207031 -6 39.164062 -6.597656 39.90625 -7.390625 C 40.65625 -8.179688 41.03125 -9.238281 41.03125 -10.5625 L 41.03125 -10.875 C 41.03125 -12.25 40.441406 -13.359375 39.265625 -14.203125 C 38.097656 -15.054688 36.628906 -15.6875 34.859375 -16.09375 C 33.085938 -16.5 31.304688 -16.703125 29.515625 -16.703125 L 11.328125 -16.703125 Z M 11.328125 -4.671875 "/></g></g><g style="fill:#000000;fill-opacity:1;"><g transform="translate(154.302287, 197.347619)"><path style="stroke:none" d="M 40.328125 0 L 35.265625 -9.34375 L 12.546875 -9.34375 L 7.421875 0 L 1.21875 0 L 21.703125 -37.125 L 26.1875 -37.125 L 46.671875 0 Z M 23.6875 -30.40625 L 14.859375 -14.140625 L 32.84375 -14.140625 L 24.203125 -30.40625 Z M 23.6875 -30.40625 "/></g></g><g style="fill:#000000;fill-opacity:1;"><g transform="translate(202.252892, 197.347619)"><path style="stroke:none" d="M 29.3125 0.125 C 27.988281 0.164062 26.625 0.195312 25.21875 0.21875 C 23.8125 0.238281 22.40625 0.164062 21 0 C 18.863281 -0.257812 16.910156 -0.941406 15.140625 -2.046875 C 13.367188 -3.160156 12.140625 -4.3125 11.453125 -5.5 L 11.453125 11.015625 L 5.765625 11.015625 L 5.765625 -28.296875 L 11.453125 -28.296875 L 11.453125 -23.75 C 11.921875 -24.4375 12.632812 -25.171875 13.59375 -25.953125 C 14.5625 -26.742188 15.726562 -27.4375 17.09375 -28.03125 C 18.457031 -28.632812 19.929688 -28.976562 21.515625 -29.0625 C 22.191406 -29.101562 23.039062 -29.132812 24.0625 -29.15625 C 25.09375 -29.175781 26.078125 -29.1875 27.015625 -29.1875 C 27.953125 -29.1875 28.632812 -29.164062 29.0625 -29.125 C 31.925781 -29.039062 34.53125 -28.421875 36.875 -27.265625 C 39.21875 -26.117188 41.09375 -24.613281 42.5 -22.75 C 43.914062 -20.894531 44.625 -18.835938 44.625 -16.578125 L 44.625 -12.296875 C 44.625 -9.984375 43.984375 -7.921875 42.703125 -6.109375 C 41.421875 -4.296875 39.632812 -2.84375 37.34375 -1.75 C 35.0625 -0.664062 32.382812 -0.0390625 29.3125 0.125 Z M 28.421875 -4.859375 C 30.296875 -4.953125 32.007812 -5.316406 33.5625 -5.953125 C 35.125 -6.585938 36.363281 -7.492188 37.28125 -8.671875 C 38.207031 -9.847656 38.671875 -11.269531 38.671875 -12.9375 L 38.671875 -15.5625 C 38.671875 -18.070312 37.6875 -20.0625 35.71875 -21.53125 C 33.757812 -23.007812 31.390625 -23.832031 28.609375 -24 C 28.441406 -24 28.023438 -24.007812 27.359375 -24.03125 C 26.703125 -24.050781 25.976562 -24.0625 25.1875 -24.0625 C 24.394531 -24.0625 23.664062 -24.0625 23 -24.0625 C 22.34375 -24.0625 21.910156 -24.039062 21.703125 -24 C 20.160156 -23.789062 18.617188 -23.300781 17.078125 -22.53125 C 15.546875 -21.757812 14.269531 -20.773438 13.25 -19.578125 C 12.226562 -18.390625 11.71875 -17.023438 11.71875 -15.484375 L 11.71875 -13.125 C 11.71875 -11.625 12.226562 -10.253906 13.25 -9.015625 C 14.269531 -7.785156 15.535156 -6.796875 17.046875 -6.046875 C 18.566406 -5.296875 20.078125 -4.898438 21.578125 -4.859375 C 21.867188 -4.859375 22.503906 -4.859375 23.484375 -4.859375 C 24.472656 -4.859375 25.457031 -4.859375 26.4375 -4.859375 C 27.414062 -4.859375 28.078125 -4.859375 28.421875 -4.859375 Z M 28.421875 -4.859375 "/></g></g><g style="fill:#000000;fill-opacity:1;"><g transform="translate(250.971738, 197.347619)"><path style="stroke:none" d="M 10.875 -35.53125 L 10.875 -42.125 L 17.671875 -42.125 L 17.671875 -35.53125 Z M 3.140625 -23.8125 L 3.140625 -28.671875 L 17.21875 -28.671875 L 17.21875 -4.671875 L 26.1875 -4.671875 L 26.1875 0 L 2.375 0 L 2.375 -4.671875 L 11.453125 -4.671875 L 11.453125 -23.8125 Z M 3.140625 -23.8125 "/></g></g><g style="fill:#000000;fill-opacity:1;"><g transform="translate(278.436092, 197.347619)"><path style="stroke:none" d="M 38.46875 0 L 36.171875 -3.265625 C 35.097656 -2.328125 33.769531 -1.546875 32.1875 -0.921875 C 30.613281 -0.304688 28.738281 0 26.5625 0 L 15.234375 0 C 11.390625 0 8.53125 -0.875 6.65625 -2.625 C 4.78125 -4.375 3.84375 -6.550781 3.84375 -9.15625 C 3.84375 -11.800781 4.832031 -13.988281 6.8125 -15.71875 C 8.800781 -17.445312 11.671875 -18.3125 15.421875 -18.3125 L 33.546875 -18.3125 L 33.546875 -19.71875 C 33.546875 -20.863281 32.882812 -21.800781 31.5625 -22.53125 C 30.238281 -23.257812 28.519531 -23.789062 26.40625 -24.125 C 24.289062 -24.46875 22.023438 -24.609375 19.609375 -24.546875 C 17.203125 -24.484375 14.867188 -24.257812 12.609375 -23.875 C 10.347656 -23.488281 8.445312 -22.957031 6.90625 -22.28125 L 6.90625 -27.015625 C 8.226562 -27.648438 9.925781 -28.171875 12 -28.578125 C 14.070312 -28.984375 16.332031 -29.257812 18.78125 -29.40625 C 21.238281 -29.5625 23.671875 -29.53125 26.078125 -29.3125 C 28.492188 -29.101562 30.691406 -28.6875 32.671875 -28.0625 C 34.660156 -27.445312 36.265625 -26.59375 37.484375 -25.5 C 38.703125 -24.414062 39.3125 -23.039062 39.3125 -21.375 L 39.3125 -10.375 C 39.3125 -9.382812 39.160156 -8.441406 38.859375 -7.546875 L 44.296875 0 Z M 9.671875 -9.21875 C 9.671875 -6.351562 11.71875 -4.921875 15.8125 -4.921875 L 26.1875 -4.921875 C 27.46875 -4.921875 28.660156 -5.09375 29.765625 -5.4375 C 30.878906 -5.78125 31.773438 -6.359375 32.453125 -7.171875 C 33.140625 -7.984375 33.484375 -9.070312 33.484375 -10.4375 L 33.484375 -13.5 L 15.8125 -13.5 C 11.71875 -13.5 9.671875 -12.070312 9.671875 -9.21875 Z M 9.671875 -9.21875 "/></g></g><path style="fill:none;stroke-width:3;stroke-linecap:butt;stroke-linejoin:miter;stroke:#000000;stroke-opacity:1;stroke-miterlimit:4;" d="M -0.00257823 1.497803 L 295.424538 1.497803 " transform="matrix(0.748929,0,0,0.748929,76.716775,234.835283)"/><path style="fill:none;stroke-width:3;stroke-linecap:butt;stroke-linejoin:miter;stroke:#000000;stroke-opacity:1;stroke-miterlimit:4;" d="M -0.00257823 1.501304 L 295.424538 1.501304 " transform="matrix(0.748929,0,0,0.748929,76.716775,137.914693)"/><g clip-rule="nonzero" clip-path="url(#5dcdaf96f2)"><path style=" stroke:none;fill-rule:nonzero;fill:#000000;fill-opacity:1;" d="M 171.335938 116.519531 C 171.023438 116.257812 170.59375 116.058594 170.234375 115.917969 C 170.753906 115.453125 171.285156 115.011719 171.910156 114.726562 C 173.675781 113.921875 175.324219 112.664062 177.308594 112.445312 C 177.628906 112.410156 177.824219 112.191406 177.898438 111.945312 C 178.445312 111.800781 178.992188 111.472656 179.414062 111.265625 C 179.488281 111.238281 179.53125 111.1875 179.582031 111.140625 C 180.011719 111.054688 180.464844 110.882812 180.859375 110.859375 C 183.761719 110.691406 186.621094 111.730469 189.46875 112.105469 C 189.34375 112.589844 189.199219 113.070312 189.113281 113.566406 C 189.039062 114.023438 188.863281 114.457031 188.800781 114.925781 C 188.726562 115.15625 188.601562 115.351562 188.425781 115.511719 C 188.414062 115.523438 188.40625 115.53125 188.398438 115.546875 C 185.953125 114.675781 184.15625 113.6875 181.417969 114.421875 C 179.976562 114.8125 178.589844 115.742188 177.132812 116.191406 C 175.828125 116.589844 174.296875 116.507812 172.964844 116.84375 C 172.605469 116.484375 171.933594 116.457031 171.335938 116.519531 Z M 210.917969 86.238281 C 211 85.875 211.066406 85.523438 211.09375 85.167969 C 211.109375 84.941406 211.148438 84.730469 211.191406 84.527344 C 211.269531 84.796875 211.355469 85.070312 211.429688 85.332031 C 211.496094 85.535156 211.554688 85.71875 211.636719 85.882812 C 211.402344 85.984375 211.167969 86.101562 210.917969 86.238281 Z M 216.585938 77.472656 C 216.546875 77.386719 216.507812 77.320312 216.453125 77.253906 C 216.839844 75.515625 216.472656 73.683594 216.109375 71.929688 C 215.628906 69.597656 212.273438 69.125 210.261719 69.074219 C 210.226562 69.023438 210.191406 68.964844 210.144531 68.929688 C 210.074219 68.792969 209.964844 68.667969 209.789062 68.597656 C 209.257812 68.378906 208.8125 68.210938 208.230469 68.210938 C 207.867188 68.210938 207.296875 68.304688 206.886719 68.226562 C 206.785156 68.023438 206.691406 67.863281 206.675781 67.640625 C 207.09375 67.566406 207.515625 67.394531 207.980469 67.039062 C 209.140625 66.148438 208.964844 64.71875 209.070312 63.394531 C 209.121094 62.742188 208.675781 61.960938 208.542969 61.308594 C 208.398438 60.597656 207.199219 60.464844 207.214844 59.707031 C 207.28125 56.496094 201.082031 56.988281 199.488281 58.175781 C 198.25 59.097656 197.433594 60.210938 197.433594 61.769531 C 197.433594 62.699219 197.394531 63.539062 197.671875 64.429688 C 197.984375 65.457031 199.1875 66.640625 198.511719 67.734375 C 197.589844 67.582031 196.570312 67.675781 195.679688 67.871094 C 195.398438 67.9375 195.070312 67.957031 194.796875 68.066406 C 193.429688 67.625 191.695312 67.609375 190.375 68.257812 C 189.636719 68.609375 189.164062 68.980469 188.578125 69.546875 C 187.667969 70.429688 187.1875 70.8125 185.976562 71.175781 C 183.992188 71.777344 182.527344 72.847656 181.21875 74.421875 C 179.777344 76.160156 175.710938 73.957031 173.765625 72.695312 C 174.152344 72.429688 174.492188 72.09375 174.777344 71.683594 C 176.667969 68.863281 176.382812 65.140625 174.128906 62.648438 C 173.566406 62.03125 171.644531 61.59375 170.8125 61.515625 C 169.074219 61.359375 167.296875 61.664062 166.085938 62.960938 C 165.875 63.183594 165.691406 63.421875 165.519531 63.664062 C 164.351562 63.761719 163.316406 64.242188 162.960938 65.496094 C 162.46875 67.210938 162.09375 70.015625 162.632812 71.726562 C 163.023438 72.992188 163.820312 74.234375 165.195312 74.574219 C 165.730469 74.703125 166.203125 74.703125 166.648438 74.617188 C 168.644531 76.445312 171.46875 77.210938 173.785156 78.617188 C 175.660156 79.753906 176.980469 81.238281 179.183594 81.628906 C 180.050781 81.773438 180.976562 81.203125 181.761719 80.949219 C 183.132812 80.5 184.585938 80.320312 185.953125 79.863281 C 187.050781 79.5 188.003906 78.992188 189.03125 78.476562 C 190.3125 77.828125 191.351562 77.667969 192.683594 77.558594 C 192.953125 78.304688 193.378906 78.761719 192.832031 79.671875 C 192.390625 80.390625 193.113281 81.253906 192.648438 82.070312 C 191.941406 83.296875 193.65625 83.875 192.960938 84.96875 C 192.910156 85.050781 192.890625 85.132812 192.875 85.203125 C 192.421875 85.363281 192.003906 85.625 191.65625 86.035156 C 191.328125 86.40625 191.328125 86.941406 191.25 87.40625 C 191.109375 88.117188 190.285156 88.621094 190.023438 89.296875 C 189.558594 90.519531 189.925781 91.875 190.117188 93.128906 C 190.132812 93.238281 190.175781 93.324219 190.226562 93.398438 C 190.140625 93.535156 190.058594 93.6875 190.003906 93.875 C 189.417969 95.757812 188.855469 97.621094 187.410156 99.054688 C 187.035156 99.441406 187.273438 99.945312 187.652344 100.113281 C 187.859375 100.484375 187.960938 100.550781 188.464844 100.8125 C 189.6875 101.441406 190.015625 102.722656 190.441406 103.902344 C 190.445312 103.933594 190.460938 103.945312 190.476562 103.96875 C 189.519531 103.875 188.550781 104.089844 187.472656 104.429688 C 186.339844 104.785156 185.152344 104.875 184.015625 105.214844 C 182.398438 105.699219 180.761719 106.332031 179.074219 106.5625 C 179.027344 106.539062 178.992188 106.511719 178.941406 106.496094 C 178.632812 106.433594 178.316406 106.382812 177.984375 106.359375 C 177.949219 106.308594 177.921875 106.257812 177.859375 106.214844 C 175.988281 104.714844 172.765625 103.976562 170.878906 105.851562 C 170.308594 106.410156 169.847656 106.996094 169.402344 107.640625 C 168.726562 108.621094 167.8125 109.15625 166.960938 109.929688 C 166 110.808594 165.191406 112.410156 165.058594 113.699219 C 165.039062 113.910156 165.023438 114.128906 165.015625 114.351562 C 165.007812 114.351562 165 114.351562 164.996094 114.351562 C 163.214844 115.113281 162.675781 117.351562 161.75 118.886719 C 160.457031 121.046875 159.832031 123.371094 158.949219 125.707031 C 158.453125 127.015625 157.710938 128.652344 158.804688 129.894531 C 160.238281 131.507812 161.472656 131.304688 163.023438 129.90625 C 163.585938 129.40625 164.007812 128.347656 164.285156 127.652344 C 164.910156 126.105469 166.210938 125.964844 167.085938 124.785156 C 167.859375 123.726562 169.148438 124.339844 169.863281 123.363281 C 170.292969 123.132812 170.671875 122.859375 171.167969 122.722656 C 171.5625 122.617188 172.011719 122.515625 172.320312 122.234375 C 172.363281 122.191406 172.398438 122.148438 172.4375 122.097656 C 175.777344 121.371094 179.421875 121.464844 182.78125 121.929688 C 184.492188 122.167969 185.847656 122.011719 187.488281 122.667969 C 188.652344 123.144531 189.855469 123.402344 191.117188 123.539062 C 193.867188 123.84375 194.144531 120.878906 195.476562 119.175781 C 197.03125 117.183594 199.582031 115.496094 200.53125 113.082031 C 201.652344 113.261719 202.621094 113.4375 203.78125 113.4375 C 204 113.4375 204.25 113.324219 204.351562 113.117188 C 204.585938 112.65625 204.546875 112.4375 204.269531 111.996094 C 203.824219 111.273438 203.863281 110.574219 203.816406 109.871094 C 203.855469 109.816406 203.890625 109.773438 203.914062 109.699219 C 204.152344 108.96875 204.210938 108.367188 204.25 107.597656 C 204.285156 106.632812 205.4375 105.722656 205.691406 104.722656 C 206.011719 103.453125 205.648438 103.277344 206.757812 102.4375 C 207.128906 102.15625 207.332031 101.652344 207.390625 101.199219 C 207.558594 99.917969 207.238281 99.097656 207.171875 97.792969 C 207.144531 97.105469 207.867188 96.527344 207.953125 95.855469 C 208.082031 94.753906 208.835938 94.324219 207.996094 93.542969 C 208.046875 93.390625 208.082031 93.238281 208.105469 93.078125 C 208.148438 92.730469 208.257812 92.796875 208.519531 92.585938 C 208.746094 92.398438 208.890625 92.179688 209.046875 91.925781 C 209.105469 91.824219 209.125 91.730469 209.132812 91.636719 C 210.417969 91.664062 211.671875 91.757812 212.710938 91.699219 C 214.265625 91.621094 216.292969 91.027344 216.972656 89.519531 C 217.683594 87.941406 217.191406 85.367188 217.246094 83.71875 C 217.304688 81.761719 217.253906 79.316406 216.585938 77.472656 "/></g><path style=" stroke:none;fill-rule:nonzero;fill:#ff4c00;fill-opacity:1;" d="M 207.515625 91.65625 C 207.382812 91.75 207.246094 91.847656 207.136719 91.992188 C 207.019531 92.140625 206.953125 92.304688 206.902344 92.46875 C 206.863281 92.433594 206.835938 92.398438 206.800781 92.355469 C 206.640625 92.171875 206.492188 91.976562 206.355469 91.769531 C 206.734375 91.714844 207.121094 91.671875 207.515625 91.65625 "/><path style=" stroke:none;fill-rule:nonzero;fill:#99614a;fill-opacity:1;" d="M 195.980469 112.085938 C 197.03125 112.761719 198.058594 112.824219 199.175781 112.917969 C 198.320312 114.800781 196.230469 115.996094 195.019531 117.617188 C 194.171875 118.75 193.515625 119.617188 192.992188 120.902344 C 192.03125 123.234375 188.964844 121.953125 187.394531 121.191406 C 186.574219 120.800781 185.804688 120.734375 184.921875 120.742188 C 183.25 120.757812 181.617188 120.414062 179.957031 120.335938 C 177.628906 120.226562 175.25 120.269531 172.949219 120.675781 C 172.964844 120.367188 172.957031 120.046875 172.964844 119.71875 C 172.984375 119.191406 172.992188 118.683594 173.109375 118.179688 C 174.011719 117.929688 175.039062 117.917969 175.929688 117.71875 C 177.695312 117.328125 179.21875 116.792969 180.902344 116.132812 C 183.878906 114.96875 185.402344 115.871094 188.121094 116.828125 C 188.257812 116.953125 188.449219 117.027344 188.691406 116.953125 C 189.351562 116.75 189.855469 115.886719 190.058594 115.269531 C 190.375 114.328125 190.59375 113.28125 190.789062 112.277344 C 192.132812 112.257812 194.222656 112.359375 195.90625 112.019531 C 195.9375 112.039062 195.949219 112.0625 195.980469 112.085938 "/><path style=" stroke:none;fill-rule:nonzero;fill:#99614a;fill-opacity:1;" d="M 199.046875 100.503906 C 199.078125 100.585938 199.117188 100.644531 199.160156 100.699219 C 198.839844 103.320312 198.511719 105.96875 197.730469 108.496094 C 197.15625 110.34375 196.28125 110.53125 194.304688 110.777344 C 193.523438 110.875 192.734375 110.894531 191.949219 110.925781 C 191.925781 110.925781 191.910156 110.910156 191.890625 110.910156 C 189.535156 111.039062 186.363281 110.222656 184.042969 109.757812 C 183.28125 109.605469 182.601562 109.535156 181.820312 109.554688 C 181.304688 109.570312 180.421875 109.4375 179.910156 109.621094 C 178.589844 110.089844 179.132812 108.757812 179.398438 107.816406 C 181.28125 107.511719 183.089844 106.851562 184.914062 106.308594 C 186.859375 105.722656 189.832031 104.636719 191.648438 105.699219 C 192.378906 106.125 193.042969 105 192.3125 104.570312 C 192.238281 104.523438 192.167969 104.496094 192.09375 104.460938 C 192.144531 104.078125 192.015625 103.648438 191.933594 103.285156 C 191.867188 103.011719 191.6875 102.882812 191.472656 102.835938 C 191.460938 102.773438 191.4375 102.707031 191.414062 102.636719 C 191.460938 102.5625 191.488281 102.476562 191.496094 102.375 C 191.699219 100.289062 193.179688 99.78125 194.980469 99.332031 C 196.410156 98.976562 198.4375 98.714844 199.046875 100.503906 "/><path style=" stroke:none;fill-rule:nonzero;fill:#99614a;fill-opacity:1;" d="M 215.949219 83.1875 C 215.972656 83.933594 215.703125 84.855469 215.65625 85.617188 C 215.59375 86.882812 216.890625 88.992188 214.820312 89.832031 C 211.378906 91.238281 206.984375 89.550781 203.671875 91.25 C 203.667969 91.246094 203.667969 91.230469 203.660156 91.222656 C 203.582031 91.144531 203.527344 91.066406 203.46875 90.976562 C 203.476562 90.957031 203.484375 90.941406 203.484375 90.910156 C 203.484375 90.359375 203.679688 89.773438 203.582031 89.304688 C 204.027344 88.921875 204.378906 88.410156 204.226562 87.953125 C 204.445312 87.789062 204.585938 87.527344 204.671875 87.246094 C 205.945312 87.984375 207.0625 88.652344 208.738281 88.375 C 210.648438 88.066406 212.078125 86.898438 213.980469 86.609375 C 214.820312 86.484375 214.460938 85.226562 213.628906 85.347656 C 213.390625 85.382812 213.179688 85.425781 212.984375 85.46875 C 212.941406 85.433594 212.917969 85.398438 212.867188 85.367188 C 212.546875 85.203125 212.464844 83.949219 212.40625 83.671875 C 212.246094 82.914062 211.867188 82.382812 211.867188 81.566406 C 211.867188 81.492188 211.875 81.425781 211.875 81.355469 C 211.886719 81.332031 211.894531 81.304688 211.910156 81.28125 C 212.066406 81.042969 212.027344 80.820312 211.902344 80.640625 C 211.984375 79.542969 212.152344 78.488281 212.136719 77.371094 C 212.195312 77.390625 212.253906 77.40625 212.3125 77.429688 C 212.761719 77.574219 213.128906 77.746094 213.523438 78.027344 C 214.214844 78.523438 214.867188 77.386719 214.1875 76.90625 C 213.710938 76.566406 213.222656 76.3125 212.660156 76.167969 C 212.472656 76.117188 212.390625 75.964844 212.261719 75.835938 C 212.171875 75.746094 212.070312 75.691406 211.960938 75.648438 C 211.894531 74.914062 211.816406 74.195312 211.640625 73.464844 C 211.386719 72.402344 210.78125 71.433594 210.511719 70.386719 C 212.523438 70.464844 214.550781 70.972656 215.046875 73.203125 C 215.375 74.6875 215.476562 76.425781 214.910156 77.835938 C 214.710938 78.328125 215.132812 78.636719 215.550781 78.617188 C 215.898438 80.070312 215.90625 81.765625 215.949219 83.1875 "/><path style=" stroke:none;fill-rule:nonzero;fill:#99614a;fill-opacity:1;" d="M 166.179688 71.996094 C 166.546875 72.292969 166.976562 72.550781 167.445312 72.777344 C 165.5625 73.828125 163.878906 72.710938 163.839844 70.261719 C 163.820312 68.914062 163.59375 66.574219 164.570312 65.507812 C 163.863281 67.710938 164.453125 70.117188 166.179688 71.996094 "/><path style=" stroke:none;fill-rule:nonzero;fill:#99614a;fill-opacity:1;" d="M 181.128906 78.957031 C 181.953125 78.777344 181.601562 77.515625 180.78125 77.695312 C 180.414062 77.777344 180.058594 77.933594 179.675781 77.941406 C 178.832031 77.976562 178.832031 79.28125 179.675781 79.246094 C 180.179688 79.230469 180.640625 79.066406 181.128906 78.957031 Z M 189.214844 74.632812 C 189.964844 74.238281 189.300781 73.117188 188.550781 73.507812 C 187.769531 73.914062 187.136719 74.464844 186.289062 74.78125 C 185.238281 75.183594 184.113281 75.171875 183.058594 75.523438 C 182.257812 75.789062 182.601562 77.050781 183.402344 76.78125 C 184.453125 76.433594 185.589844 76.398438 186.640625 76.035156 C 187.601562 75.703125 188.332031 75.085938 189.214844 74.632812 Z M 194.113281 69.242188 C 193.886719 70.480469 193.523438 71.667969 193.164062 72.847656 C 192.941406 72.636719 192.707031 72.445312 192.4375 72.28125 C 191.707031 71.855469 191.074219 71.855469 190.25 71.878906 C 189.402344 71.902344 189.402344 73.203125 190.25 73.183594 C 190.828125 73.167969 191.25 73.128906 191.773438 73.40625 C 192.152344 73.617188 192.445312 73.953125 192.765625 74.246094 C 192.582031 74.90625 192.429688 75.574219 192.328125 76.253906 C 191.140625 76.269531 190.351562 76.160156 189.007812 76.972656 C 186.625 78.390625 184.113281 79.09375 181.417969 79.6875 C 180.0625 79.992188 178.960938 80.824219 177.636719 79.6875 C 176.871094 79.03125 175.914062 78.53125 175.085938 77.941406 C 172.96875 76.445312 170.039062 75.648438 167.996094 74.039062 C 168.3125 73.828125 168.625 73.582031 168.945312 73.3125 C 170.089844 73.597656 171.308594 73.640625 172.394531 73.335938 C 172.398438 73.347656 172.40625 73.355469 172.425781 73.363281 C 174.203125 74.632812 179.34375 77.734375 181.507812 75.890625 C 182.566406 74.992188 183.359375 73.921875 184.5625 73.183594 C 185.582031 72.558594 186.917969 72.804688 187.84375 72.277344 C 188.449219 71.9375 188.777344 71.507812 189.179688 70.957031 C 190.324219 69.363281 192.253906 68.777344 194.113281 69.242188 "/><path style=" stroke:none;fill-rule:nonzero;fill:#99614a;fill-opacity:1;" d="M 200.96875 62.539062 C 201.644531 62.886719 202.242188 61.8125 201.5625 61.371094 C 201.359375 61.234375 201.152344 61.222656 200.910156 61.234375 C 200.644531 61.25 200.371094 61.171875 200.128906 61.328125 C 199.667969 61.621094 199.589844 62.03125 199.539062 62.53125 C 199.496094 63.023438 199.617188 63.574219 200.019531 63.886719 C 200.414062 64.199219 200.96875 64.300781 201.460938 64.304688 C 202.308594 64.3125 202.300781 63.007812 201.460938 63.003906 C 201.28125 63.003906 201.097656 62.945312 200.917969 62.914062 C 200.816406 62.902344 200.894531 63.015625 200.851562 62.753906 C 200.835938 62.703125 200.835938 62.648438 200.851562 62.597656 C 200.851562 62.582031 200.851562 62.566406 200.859375 62.539062 C 200.9375 62.554688 201.011719 62.582031 200.96875 62.539062 Z M 200.9375 68.636719 C 200.960938 69.472656 202.273438 69.480469 202.25 68.636719 C 202.242188 68.300781 202.191406 67.972656 202.089844 67.644531 C 201.84375 66.84375 200.582031 67.191406 200.828125 67.996094 C 200.894531 68.210938 200.929688 68.40625 200.9375 68.636719 Z M 207.359375 62.386719 C 207.746094 63.328125 207.710938 63.914062 207.652344 64.917969 C 207.523438 67.414062 203.160156 66.191406 203.160156 64.742188 C 203.160156 64.019531 201.847656 64.019531 201.847656 64.742188 C 201.847656 66.191406 202.847656 66.585938 203.96875 67.023438 C 204.066406 67.058594 204.160156 67.097656 204.25 67.132812 C 204.25 67.140625 204.242188 67.148438 204.242188 67.152344 C 204.234375 67.160156 204.21875 67.167969 204.183594 67.203125 C 204.125 67.253906 204.058594 67.304688 204 67.355469 C 203.816406 67.523438 203.632812 67.683594 203.453125 67.859375 C 203.28125 68.03125 203.125 68.226562 202.980469 68.421875 C 202.871094 68.574219 202.804688 68.753906 202.679688 68.898438 C 202.125 69.53125 203.046875 70.449219 203.605469 69.820312 C 203.78125 69.625 203.914062 69.421875 204.027344 69.191406 C 204.152344 68.949219 204.414062 68.75 204.605469 68.566406 C 204.871094 68.3125 205.203125 68.09375 205.378906 67.769531 C 205.421875 68.191406 205.589844 68.523438 205.773438 68.921875 C 205.78125 68.941406 205.800781 68.957031 205.816406 68.980469 C 205.558594 69.832031 205.085938 70.152344 204.152344 70.457031 C 203.582031 70.648438 203.152344 70.9375 202.714844 71.253906 C 202.285156 70.792969 201.640625 70.480469 201.089844 70.242188 C 200.390625 69.945312 199.777344 69.304688 199.496094 68.574219 C 200.324219 67.347656 199.984375 66.234375 199.332031 64.886719 C 198.746094 63.648438 198.597656 62.375 198.789062 61.015625 C 199.109375 58.773438 202.125 58.546875 203.761719 58.757812 C 204.554688 58.859375 205.925781 58.691406 205.894531 60.113281 C 205.890625 60.328125 205.941406 60.605469 206.046875 60.792969 C 206.464844 61.5 207.011719 61.515625 207.359375 62.386719 "/><path style=" stroke:none;fill-rule:nonzero;fill:#ff4800;fill-opacity:1;" d="M 171.808594 117.824219 C 171.78125 117.9375 171.757812 118.058594 171.746094 118.183594 C 171.644531 118.800781 171.65625 119.46875 171.644531 120.089844 C 171.636719 120.351562 171.738281 120.929688 171.554688 121.15625 C 171.351562 121.414062 170.78125 121.476562 170.484375 121.554688 C 170.367188 121.582031 170.257812 121.632812 170.148438 121.683594 C 170.140625 121.539062 170.148438 121.394531 170.191406 121.25 C 170.636719 119.917969 170.554688 119.007812 171.453125 117.828125 C 171.578125 117.824219 171.695312 117.816406 171.808594 117.824219 "/><path style=" stroke:none;fill-rule:nonzero;fill:#ff4800;fill-opacity:1;" d="M 176.855469 108.625 C 176.988281 107.925781 177.519531 107.691406 178.101562 107.699219 C 177.921875 108.597656 177.738281 109.636719 178.101562 110.460938 C 177.929688 110.539062 177.738281 110.613281 177.542969 110.664062 C 177.449219 110.664062 177.257812 109.878906 177.226562 109.785156 C 177.097656 109.359375 176.761719 109.117188 176.855469 108.625 "/><path style=" stroke:none;fill-rule:nonzero;fill:#f2f2f2;fill-opacity:1;" d="M 165.117188 115.816406 C 165.203125 116.300781 165.359375 116.75 165.582031 117.105469 C 164.113281 118.480469 163.257812 120.695312 162.296875 122.378906 C 161.726562 123.371094 161.332031 124.785156 160.996094 125.886719 C 160.761719 126.675781 160.851562 127.59375 160.691406 128.480469 C 160.371094 128.328125 160.015625 128.113281 159.621094 127.8125 C 159.882812 126.480469 160.53125 125.175781 160.945312 123.871094 C 161.421875 122.367188 162.105469 120.921875 162.878906 119.546875 C 163.492188 118.464844 164.058594 116.675781 165.117188 115.816406 "/><path style=" stroke:none;fill-rule:nonzero;fill:#f2f2f2;fill-opacity:1;" d="M 170.105469 117.175781 C 170.105469 117.207031 170.113281 117.226562 170.113281 117.25 C 170.003906 117.34375 169.871094 117.503906 169.726562 117.753906 C 169.535156 118.089844 169.300781 118.445312 169.199219 118.820312 C 169.105469 119.15625 168.960938 123.039062 167.546875 122.660156 C 167.40625 122.625 167.246094 122.660156 167.09375 122.726562 C 166.933594 122.054688 166.65625 121.414062 166.109375 120.972656 C 165.824219 120.757812 165.453125 120.707031 165.175781 120.972656 C 164.949219 121.207031 164.898438 121.675781 165.175781 121.898438 C 165.734375 122.339844 165.875 123.074219 165.941406 123.75 C 165.949219 123.8125 165.976562 123.863281 166 123.914062 C 165.847656 124.066406 165.679688 124.199219 165.496094 124.320312 C 165.476562 124.253906 165.460938 124.191406 165.425781 124.132812 C 165.320312 123.941406 165.277344 123.734375 165.160156 123.554688 C 164.703125 122.851562 163.570312 123.5 164.03125 124.210938 C 164.207031 124.488281 164.277344 124.804688 164.394531 125.109375 C 164.214844 125.265625 164.039062 125.4375 163.890625 125.640625 C 163.613281 126.015625 163.410156 126.347656 163.226562 126.789062 C 163.105469 127.082031 162.972656 127.378906 162.84375 127.675781 C 162.710938 128.066406 162.523438 128.335938 162.289062 128.507812 C 162.5 128.113281 162.675781 127.714844 162.675781 127.167969 C 162.644531 126.839844 162.535156 126.53125 162.351562 126.25 C 162.296875 126.089844 162.8125 124.851562 162.921875 124.554688 C 163.664062 122.589844 164.882812 119.261719 166.699219 117.859375 C 167.078125 117.902344 167.523438 117.824219 168.0625 117.574219 C 168.476562 117.378906 168.859375 117.113281 169.214844 116.808594 C 169.289062 116.902344 169.382812 116.988281 169.523438 117.039062 C 169.777344 117.125 169.96875 117.167969 170.105469 117.175781 "/><path style=" stroke:none;fill-rule:nonzero;fill:#f2f2f2;fill-opacity:1;" d="M 175.929688 110.207031 C 176.054688 110.5625 176.15625 110.96875 176.332031 111.308594 C 174.648438 111.671875 173.019531 112.453125 171.496094 113.394531 C 171.472656 113.167969 171.421875 112.953125 171.34375 112.757812 C 171.910156 112.421875 172.414062 111.929688 172.867188 111.375 C 173.335938 110.800781 174.792969 110.664062 175.484375 110.410156 C 175.644531 110.351562 175.800781 110.285156 175.929688 110.207031 "/><path style=" stroke:none;fill-rule:nonzero;fill:#f2f2f2;fill-opacity:1;" d="M 176.453125 106.824219 C 176.410156 106.867188 176.367188 106.894531 176.324219 106.945312 C 175.929688 107.402344 175.574219 108.070312 175.515625 108.722656 C 175.492188 108.765625 175.464844 108.800781 175.441406 108.859375 C 175.230469 109.5625 172.925781 109.785156 172.296875 110.15625 C 171.335938 110.726562 170.820312 112.164062 169.460938 111.84375 C 168.636719 111.648438 168.289062 112.910156 169.113281 113.097656 C 169.417969 113.167969 169.703125 113.183594 169.980469 113.167969 C 170.015625 113.234375 170.074219 113.285156 170.148438 113.332031 C 170.164062 113.375 170.175781 113.417969 170.191406 113.460938 C 170.25 113.65625 170.226562 113.894531 170.226562 114.097656 C 170.226562 114.140625 170.242188 114.179688 170.25 114.214844 C 169.449219 114.769531 168.683594 115.34375 167.960938 115.902344 C 165.605469 117.71875 166.671875 112.824219 166.984375 112.078125 C 167.496094 110.875 168.75 110.285156 169.660156 109.445312 C 170.644531 108.539062 171.109375 107.292969 172.226562 106.453125 C 173.128906 105.777344 175.238281 106.171875 176.453125 106.824219 "/><path style=" stroke:none;fill-rule:nonzero;fill:#cccccc;fill-opacity:1;" d="M 196.914062 97.78125 C 196.433594 97.757812 195.9375 97.792969 195.457031 97.894531 C 194.054688 98.171875 192.851562 98.199219 191.746094 99.195312 C 191.210938 99.671875 190.839844 100.199219 190.578125 100.792969 C 190.484375 100.679688 190.375 100.570312 190.25 100.46875 C 189.863281 100.148438 189.351562 99.609375 188.855469 99.773438 C 189.417969 99.585938 189.921875 99.488281 190.460938 99.238281 C 192.226562 98.398438 194.769531 96.746094 196.753906 97.730469 C 196.804688 97.75 196.863281 97.757812 196.914062 97.78125 "/><path style=" stroke:none;fill-rule:nonzero;fill:#ff4800;fill-opacity:1;" d="M 196.933594 85.136719 C 197.640625 85.609375 198.300781 84.476562 197.597656 84.015625 C 197.117188 83.695312 196.667969 83.398438 196.082031 83.332031 C 195.722656 83.296875 195.425781 83.660156 195.425781 83.984375 C 195.425781 84.371094 195.722656 84.601562 196.082031 84.636719 C 196.367188 84.664062 196.710938 84.984375 196.933594 85.136719 Z M 199.21875 85.078125 C 199.765625 85.730469 200.683594 84.804688 200.144531 84.160156 C 199.464844 83.355469 198.808594 82.542969 198 81.863281 C 197.261719 81.238281 196.488281 80.484375 195.570312 80.148438 C 194.777344 79.847656 194.441406 81.109375 195.222656 81.398438 C 196.058594 81.710938 196.847656 82.585938 197.511719 83.160156 C 198.152344 83.71875 198.679688 84.433594 199.21875 85.078125 Z M 203.21875 99.339844 C 203.308594 100.164062 204.621094 100.171875 204.535156 99.339844 C 204.457031 98.664062 204.292969 98.035156 204.050781 97.394531 C 203.832031 96.808594 203.46875 96.304688 203.234375 95.722656 C 202.914062 94.953125 201.644531 95.289062 201.96875 96.070312 C 202.417969 97.171875 203.082031 98.121094 203.21875 99.339844 Z M 210.847656 77.203125 C 210.839844 77.230469 210.824219 77.253906 210.824219 77.28125 C 210.855469 78.582031 210.539062 79.890625 210.527344 81.1875 C 210.226562 82.042969 210.253906 83.011719 209.945312 83.863281 C 209.5625 84.871094 209.761719 86.007812 209.277344 87.007812 C 209.273438 87.019531 209.273438 87.027344 209.273438 87.035156 C 207.535156 87.5 205.933594 86.390625 204.378906 85.59375 C 203.933594 85.132812 203.265625 84.753906 202.929688 84.433594 C 202.316406 83.847656 201.390625 84.769531 201.996094 85.355469 C 202.335938 85.679688 202.738281 85.925781 203.089844 86.238281 C 203.265625 86.382812 203.527344 86.507812 203.425781 86.757812 C 203.367188 86.914062 203.351562 86.964844 203.367188 86.976562 C 203.332031 87.007812 203.285156 87.035156 203.257812 87.070312 C 202.945312 86.890625 202.609375 86.722656 202.308594 86.558594 C 201.695312 86.214844 200.902344 86.007812 200.222656 85.847656 C 199.398438 85.652344 199.046875 86.914062 199.875 87.105469 C 200.355469 87.226562 200.871094 87.375 201.332031 87.554688 C 201.683594 87.695312 201.980469 87.898438 202.316406 88.058594 C 202.367188 88.078125 202.578125 88.195312 202.746094 88.289062 C 202.679688 88.347656 202.621094 88.398438 202.550781 88.445312 C 202.25 88.367188 201.929688 88.332031 201.625 88.28125 C 201.152344 88.195312 200.710938 88.136719 200.230469 88.136719 C 199.382812 88.136719 199.382812 89.441406 200.230469 89.441406 C 200.808594 89.441406 201.347656 89.5625 201.921875 89.636719 C 201.996094 89.746094 202.105469 89.816406 202.234375 89.855469 C 202.207031 90.003906 202.183594 90.160156 202.175781 90.308594 C 202.089844 90.316406 202.003906 90.316406 201.90625 90.324219 C 201.132812 90.382812 200.128906 90.507812 199.441406 90.898438 C 198.707031 91.3125 199.363281 92.433594 200.105469 92.019531 C 200.535156 91.78125 201.195312 91.738281 201.667969 91.664062 C 201.761719 91.65625 202.265625 91.535156 202.34375 91.636719 C 202.398438 91.699219 202.449219 91.773438 202.5 91.839844 C 202.382812 91.90625 202.273438 91.960938 202.164062 92.011719 C 201.753906 92.1875 201.398438 92.441406 200.988281 92.617188 C 200.660156 92.757812 200.59375 93.230469 200.757812 93.507812 C 200.953125 93.847656 201.324219 93.882812 201.652344 93.742188 C 202.019531 93.585938 202.335938 93.34375 202.695312 93.1875 C 202.722656 93.179688 202.753906 93.164062 202.785156 93.152344 C 202.980469 93.203125 203.191406 93.179688 203.382812 93.007812 C 203.476562 92.917969 203.578125 92.847656 203.679688 92.773438 C 203.765625 92.738281 203.839844 92.6875 203.90625 92.617188 C 204.242188 92.398438 204.613281 92.222656 205 92.09375 C 205.40625 92.796875 206.0625 93.820312 206.851562 94.078125 C 206.878906 94.214844 206.953125 94.355469 207.09375 94.46875 C 206.9375 94.46875 206.019531 96.976562 205.953125 97.105469 C 205.066406 98.875 207.246094 100.613281 205 102.082031 C 203.941406 102.773438 204.640625 104.546875 203.914062 105.394531 C 203.382812 106.019531 203.191406 106.570312 203.082031 107.15625 C 202.914062 106.476562 202.84375 105.785156 203.03125 104.992188 C 203.265625 103.988281 202.894531 103.113281 202.6875 102.15625 C 202.507812 101.332031 201.246094 101.675781 201.417969 102.5 C 201.625 103.445312 201.878906 104.15625 201.644531 105.140625 C 201.539062 105.621094 201.511719 106.273438 201.601562 106.757812 C 201.734375 107.453125 201.980469 108.082031 202.214844 108.75 C 202.46875 109.464844 202.191406 110.121094 202.328125 110.832031 C 202.425781 111.328125 202.578125 111.722656 202.8125 112.132812 C 202.710938 112.132812 202.609375 112.132812 202.507812 112.128906 C 201.777344 112.121094 200.910156 111.828125 200.171875 111.707031 C 199.289062 111.5625 198.4375 111.605469 197.605469 111.378906 C 197.941406 111.160156 198.210938 110.894531 198.386719 110.5625 C 199.742188 107.933594 200.035156 104.742188 200.355469 101.765625 C 200.464844 101.722656 200.558594 101.644531 200.632812 101.535156 C 200.703125 101.460938 200.769531 101.382812 200.816406 101.28125 C 201.949219 98.5625 201.339844 95.152344 199.835938 92.757812 C 199.390625 92.050781 198.257812 92.703125 198.707031 93.421875 C 199.371094 94.476562 199.828125 95.773438 200 97.097656 C 199.226562 96.128906 197.984375 96.636719 196.710938 96.269531 C 194.8125 95.707031 193.492188 96.484375 191.714844 97.152344 C 191.042969 97.394531 190.433594 97.78125 189.789062 98.085938 C 190.167969 97.417969 190.46875 96.707031 190.722656 95.933594 C 191 95.070312 191.148438 94.203125 191.808594 93.550781 C 192.417969 92.945312 192.640625 92.128906 193.269531 91.558594 C 193.886719 90.992188 192.960938 90.070312 192.332031 90.636719 C 191.824219 91.109375 191.636719 91.476562 191.320312 92.078125 C 191.3125 92.097656 191.300781 92.113281 191.285156 92.136719 C 191.207031 91.535156 191.132812 90.941406 191.132812 90.324219 C 191.132812 89.390625 192.210938 88.617188 192.511719 87.746094 C 192.847656 86.796875 193.226562 86.390625 194.304688 86.308594 C 195.234375 86.253906 196.394531 86.898438 197.160156 87.355469 C 197.890625 87.789062 198.554688 86.664062 197.824219 86.230469 C 196.882812 85.675781 195.621094 85.125 194.410156 85.027344 C 194.589844 84.613281 194.726562 84.136719 194.617188 83.8125 C 194.515625 83.488281 194.433594 83.332031 194.171875 83.109375 C 193.699219 82.683594 194.089844 82.421875 194.164062 81.984375 C 194.308594 81.144531 193.996094 80.382812 194.304688 79.585938 C 194.769531 78.332031 194.136719 78.035156 193.84375 76.886719 C 193.808594 76.753906 193.742188 76.660156 193.660156 76.589844 C 193.648438 76.550781 193.625 76.523438 193.601562 76.496094 C 193.953125 74.015625 195.046875 71.753906 195.441406 69.261719 C 195.441406 69.246094 195.433594 69.234375 195.441406 69.21875 C 195.695312 69.132812 196.058594 69.148438 196.300781 69.117188 C 196.957031 69.023438 197.613281 68.90625 198.277344 69.015625 C 198.546875 69.691406 199.035156 70.335938 199.515625 70.847656 C 199.816406 71.167969 200.25 71.292969 200.644531 71.464844 C 201.054688 71.640625 201.691406 71.9375 201.890625 72.363281 C 201.941406 72.464844 202.011719 72.539062 202.089844 72.585938 C 202.265625 72.828125 202.5625 72.949219 202.886719 72.730469 C 203.242188 72.488281 203.53125 72.1875 203.917969 71.972656 C 204.476562 71.660156 205.128906 71.558594 205.691406 71.253906 C 206.421875 70.863281 206.800781 70.261719 207.027344 69.539062 C 207.273438 69.539062 207.53125 69.515625 207.738281 69.515625 C 208.257812 69.515625 208.644531 69.574219 209.082031 69.71875 C 209.164062 70.753906 209.542969 71.617188 209.964844 72.585938 C 210.578125 74.015625 210.613281 75.492188 210.78125 77.015625 C 210.789062 77.085938 210.816406 77.144531 210.847656 77.203125 "/><path style=" stroke:none;fill-rule:nonzero;fill:#ff4c15;fill-opacity:1;" d="M 172.757812 63.464844 C 175.039062 64.207031 174.554688 67.242188 174.554688 69.089844 C 174.554688 72.710938 169.117188 72.71875 167.109375 71.074219 C 165.363281 69.175781 165.109375 67.023438 166.363281 64.777344 C 167.800781 62.199219 170.453125 62.726562 172.757812 63.464844 "/><g clip-rule="nonzero" clip-path="url(#55517b3042)"><path style=" stroke:none;fill-rule:nonzero;fill:#000000;fill-opacity:1;" d="M 165.582031 117.105469 C 165.359375 116.75 165.203125 116.300781 165.117188 115.816406 C 164.058594 116.675781 163.492188 118.464844 162.878906 119.546875 C 162.105469 120.921875 161.421875 122.367188 160.945312 123.871094 C 160.53125 125.175781 159.882812 126.480469 159.621094 127.8125 C 160.015625 128.113281 160.371094 128.328125 160.691406 128.480469 C 160.851562 127.59375 160.761719 126.675781 160.996094 125.886719 C 161.332031 124.785156 161.726562 123.371094 162.296875 122.378906 C 163.257812 120.695312 164.113281 118.480469 165.582031 117.105469 Z M 167.445312 72.777344 C 166.976562 72.550781 166.546875 72.292969 166.179688 71.996094 C 164.453125 70.117188 163.863281 67.710938 164.570312 65.507812 C 163.59375 66.574219 163.820312 68.914062 163.839844 70.261719 C 163.878906 72.710938 165.5625 73.828125 167.445312 72.777344 Z M 170.113281 117.25 C 170.113281 117.226562 170.105469 117.207031 170.105469 117.175781 C 169.96875 117.167969 169.777344 117.125 169.523438 117.039062 C 169.382812 116.988281 169.289062 116.902344 169.214844 116.808594 C 168.859375 117.113281 168.476562 117.378906 168.0625 117.574219 C 167.523438 117.824219 167.078125 117.902344 166.699219 117.859375 C 164.882812 119.261719 163.664062 122.589844 162.921875 124.554688 C 162.8125 124.851562 162.296875 126.089844 162.351562 126.25 C 162.535156 126.53125 162.644531 126.839844 162.675781 127.167969 C 162.675781 127.714844 162.5 128.113281 162.289062 128.507812 C 162.523438 128.335938 162.710938 128.066406 162.84375 127.675781 C 162.972656 127.378906 163.105469 127.082031 163.226562 126.789062 C 163.410156 126.347656 163.613281 126.015625 163.890625 125.640625 C 164.039062 125.4375 164.214844 125.265625 164.394531 125.109375 C 164.277344 124.804688 164.207031 124.488281 164.03125 124.210938 C 163.570312 123.5 164.703125 122.851562 165.160156 123.554688 C 165.277344 123.734375 165.320312 123.941406 165.425781 124.132812 C 165.460938 124.191406 165.476562 124.253906 165.496094 124.320312 C 165.679688 124.199219 165.847656 124.066406 166 123.914062 C 165.976562 123.863281 165.949219 123.8125 165.941406 123.75 C 165.875 123.074219 165.734375 122.339844 165.175781 121.898438 C 164.898438 121.675781 164.949219 121.207031 165.175781 120.972656 C 165.453125 120.707031 165.824219 120.757812 166.109375 120.972656 C 166.65625 121.414062 166.933594 122.054688 167.09375 122.726562 C 167.246094 122.660156 167.40625 122.625 167.546875 122.660156 C 168.960938 123.039062 169.105469 119.15625 169.199219 118.820312 C 169.300781 118.445312 169.535156 118.089844 169.726562 117.753906 C 169.871094 117.503906 170.003906 117.34375 170.113281 117.25 Z M 171.746094 118.183594 C 171.757812 118.058594 171.78125 117.9375 171.808594 117.824219 C 171.695312 117.816406 171.578125 117.824219 171.453125 117.828125 C 170.554688 119.007812 170.636719 119.917969 170.191406 121.25 C 170.148438 121.394531 170.140625 121.539062 170.148438 121.683594 C 170.257812 121.632812 170.367188 121.582031 170.484375 121.554688 C 170.78125 121.476562 171.351562 121.414062 171.554688 121.15625 C 171.738281 120.929688 171.636719 120.351562 171.644531 120.089844 C 171.65625 119.46875 171.644531 118.800781 171.746094 118.183594 Z M 174.554688 69.089844 C 174.554688 67.242188 175.039062 64.207031 172.757812 63.464844 C 170.453125 62.726562 167.800781 62.199219 166.363281 64.777344 C 165.109375 67.023438 165.363281 69.175781 167.109375 71.074219 C 169.117188 72.71875 174.554688 72.710938 174.554688 69.089844 Z M 176.332031 111.308594 C 176.15625 110.96875 176.054688 110.5625 175.929688 110.207031 C 175.800781 110.285156 175.644531 110.351562 175.484375 110.410156 C 174.792969 110.664062 173.335938 110.800781 172.867188 111.375 C 172.414062 111.929688 171.910156 112.421875 171.34375 112.757812 C 171.421875 112.953125 171.472656 113.167969 171.496094 113.394531 C 173.019531 112.453125 174.648438 111.671875 176.332031 111.308594 Z M 176.324219 106.945312 C 176.367188 106.894531 176.410156 106.867188 176.453125 106.824219 C 175.238281 106.171875 173.128906 105.777344 172.226562 106.453125 C 171.109375 107.292969 170.644531 108.539062 169.660156 109.445312 C 168.75 110.285156 167.496094 110.875 166.984375 112.078125 C 166.671875 112.824219 165.605469 117.71875 167.960938 115.902344 C 168.683594 115.34375 169.449219 114.769531 170.25 114.214844 C 170.242188 114.179688 170.226562 114.140625 170.226562 114.097656 C 170.226562 113.894531 170.25 113.65625 170.191406 113.460938 C 170.175781 113.417969 170.164062 113.375 170.148438 113.332031 C 170.074219 113.285156 170.015625 113.234375 169.980469 113.167969 C 169.703125 113.183594 169.417969 113.167969 169.113281 113.097656 C 168.289062 112.910156 168.636719 111.648438 169.460938 111.84375 C 170.820312 112.164062 171.335938 110.726562 172.296875 110.15625 C 172.925781 109.785156 175.230469 109.5625 175.441406 108.859375 C 175.464844 108.800781 175.492188 108.765625 175.515625 108.722656 C 175.574219 108.070312 175.929688 107.402344 176.324219 106.945312 Z M 178.101562 107.699219 C 177.519531 107.691406 176.988281 107.925781 176.855469 108.625 C 176.761719 109.117188 177.097656 109.359375 177.226562 109.785156 C 177.257812 109.878906 177.449219 110.664062 177.542969 110.664062 C 177.738281 110.613281 177.929688 110.539062 178.101562 110.460938 C 177.738281 109.636719 177.921875 108.597656 178.101562 107.699219 Z M 189.113281 113.566406 C 189.199219 113.070312 189.34375 112.589844 189.46875 112.105469 C 186.621094 111.730469 183.761719 110.691406 180.859375 110.859375 C 180.464844 110.882812 180.011719 111.054688 179.582031 111.140625 C 179.53125 111.1875 179.488281 111.238281 179.414062 111.265625 C 178.992188 111.472656 178.445312 111.800781 177.898438 111.945312 C 177.824219 112.191406 177.628906 112.410156 177.308594 112.445312 C 175.324219 112.664062 173.675781 113.921875 171.910156 114.726562 C 171.285156 115.011719 170.753906 115.453125 170.234375 115.917969 C 170.59375 116.058594 171.023438 116.257812 171.335938 116.515625 C 171.933594 116.457031 172.605469 116.484375 172.964844 116.84375 C 174.296875 116.507812 175.828125 116.589844 177.132812 116.191406 C 178.589844 115.742188 179.976562 114.8125 181.417969 114.421875 C 184.15625 113.6875 185.953125 114.675781 188.398438 115.546875 C 188.40625 115.53125 188.414062 115.523438 188.425781 115.511719 C 188.601562 115.351562 188.726562 115.15625 188.800781 114.925781 C 188.863281 114.457031 189.039062 114.023438 189.113281 113.566406 Z M 193.164062 72.847656 C 193.523438 71.667969 193.886719 70.480469 194.113281 69.242188 C 192.253906 68.777344 190.324219 69.363281 189.179688 70.957031 C 188.777344 71.507812 188.449219 71.9375 187.84375 72.277344 C 186.917969 72.804688 185.582031 72.558594 184.5625 73.183594 C 183.359375 73.921875 182.566406 74.992188 181.507812 75.890625 C 179.34375 77.734375 174.203125 74.632812 172.425781 73.363281 C 172.40625 73.355469 172.398438 73.347656 172.394531 73.335938 C 171.308594 73.640625 170.089844 73.597656 168.945312 73.3125 C 168.625 73.582031 168.3125 73.828125 167.996094 74.039062 C 170.039062 75.648438 172.96875 76.445312 175.085938 77.941406 C 175.914062 78.53125 176.871094 79.03125 177.636719 79.6875 C 178.960938 80.824219 180.0625 79.992188 181.417969 79.6875 C 184.113281 79.09375 186.625 78.390625 189.007812 76.972656 C 190.351562 76.160156 191.140625 76.269531 192.328125 76.253906 C 192.429688 75.574219 192.582031 74.90625 192.765625 74.246094 C 192.445312 73.953125 192.152344 73.617188 191.773438 73.40625 C 191.25 73.128906 190.828125 73.167969 190.25 73.183594 C 189.402344 73.203125 189.402344 71.902344 190.25 71.878906 C 191.074219 71.855469 191.707031 71.855469 192.4375 72.28125 C 192.707031 72.445312 192.941406 72.636719 193.164062 72.847656 Z M 195.457031 97.894531 C 195.9375 97.792969 196.433594 97.757812 196.914062 97.78125 C 196.863281 97.757812 196.804688 97.75 196.753906 97.730469 C 194.769531 96.746094 192.226562 98.398438 190.460938 99.238281 C 189.921875 99.488281 189.417969 99.585938 188.855469 99.773438 C 189.351562 99.609375 189.863281 100.148438 190.25 100.46875 C 190.375 100.570312 190.484375 100.679688 190.578125 100.792969 C 190.839844 100.199219 191.210938 99.671875 191.746094 99.195312 C 192.851562 98.199219 194.054688 98.171875 195.457031 97.894531 Z M 199.175781 112.917969 C 198.058594 112.824219 197.03125 112.761719 195.980469 112.085938 C 195.949219 112.0625 195.9375 112.039062 195.90625 112.019531 C 194.222656 112.359375 192.132812 112.257812 190.789062 112.277344 C 190.59375 113.28125 190.375 114.328125 190.058594 115.269531 C 189.855469 115.886719 189.351562 116.75 188.691406 116.953125 C 188.449219 117.027344 188.257812 116.953125 188.121094 116.828125 C 185.402344 115.871094 183.878906 114.96875 180.902344 116.132812 C 179.21875 116.792969 177.695312 117.328125 175.929688 117.71875 C 175.039062 117.917969 174.011719 117.929688 173.109375 118.179688 C 172.992188 118.683594 172.984375 119.191406 172.964844 119.71875 C 172.957031 120.046875 172.964844 120.367188 172.949219 120.675781 C 175.25 120.269531 177.628906 120.226562 179.957031 120.335938 C 181.617188 120.414062 183.25 120.757812 184.921875 120.742188 C 185.804688 120.734375 186.574219 120.800781 187.394531 121.191406 C 188.964844 121.953125 192.03125 123.234375 192.992188 120.902344 C 193.515625 119.617188 194.171875 118.75 195.019531 117.617188 C 196.230469 115.996094 198.320312 114.800781 199.175781 112.917969 Z M 199.488281 98.816406 C 199.347656 98.214844 199.066406 97.757812 198.546875 97.816406 C 198.292969 97.84375 198.023438 97.882812 197.75 97.886719 C 198.410156 98.042969 199.011719 98.339844 199.488281 98.816406 Z M 199.160156 100.699219 C 199.117188 100.644531 199.078125 100.585938 199.046875 100.503906 C 198.4375 98.714844 196.410156 98.976562 194.980469 99.332031 C 193.179688 99.78125 191.699219 100.289062 191.496094 102.375 C 191.488281 102.476562 191.460938 102.5625 191.414062 102.636719 C 191.4375 102.707031 191.460938 102.773438 191.472656 102.835938 C 191.6875 102.882812 191.867188 103.011719 191.933594 103.285156 C 192.015625 103.648438 192.144531 104.078125 192.09375 104.460938 C 192.167969 104.496094 192.238281 104.523438 192.3125 104.570312 C 193.042969 105 192.378906 106.125 191.648438 105.699219 C 189.832031 104.636719 186.859375 105.722656 184.914062 106.308594 C 183.089844 106.851562 181.28125 107.511719 179.398438 107.816406 C 179.132812 108.757812 178.589844 110.089844 179.910156 109.621094 C 180.421875 109.4375 181.304688 109.570312 181.820312 109.554688 C 182.601562 109.535156 183.28125 109.605469 184.042969 109.757812 C 186.363281 110.222656 189.535156 111.039062 191.890625 110.910156 C 191.910156 110.910156 191.925781 110.925781 191.949219 110.925781 C 192.734375 110.894531 193.523438 110.875 194.304688 110.777344 C 196.28125 110.53125 197.15625 110.34375 197.730469 108.496094 C 198.511719 105.96875 198.839844 103.320312 199.160156 100.699219 Z M 207.136719 91.992188 C 207.246094 91.847656 207.382812 91.75 207.515625 91.65625 C 207.121094 91.671875 206.734375 91.714844 206.355469 91.769531 C 206.492188 91.976562 206.640625 92.171875 206.800781 92.355469 C 206.835938 92.398438 206.863281 92.433594 206.902344 92.46875 C 206.953125 92.304688 207.019531 92.140625 207.136719 91.992188 Z M 207.652344 64.917969 C 207.710938 63.914062 207.746094 63.328125 207.359375 62.386719 C 207.011719 61.515625 206.464844 61.5 206.046875 60.792969 C 205.941406 60.605469 205.890625 60.328125 205.894531 60.113281 C 205.925781 58.691406 204.554688 58.859375 203.761719 58.757812 C 202.125 58.546875 199.109375 58.773438 198.789062 61.015625 C 198.597656 62.375 198.746094 63.648438 199.332031 64.886719 C 199.984375 66.234375 200.324219 67.347656 199.496094 68.574219 C 199.777344 69.304688 200.390625 69.945312 201.089844 70.242188 C 201.640625 70.480469 202.285156 70.792969 202.714844 71.253906 C 203.152344 70.9375 203.582031 70.648438 204.152344 70.457031 C 205.085938 70.152344 205.558594 69.832031 205.816406 68.980469 C 205.800781 68.957031 205.78125 68.941406 205.773438 68.921875 C 205.589844 68.523438 205.421875 68.191406 205.378906 67.769531 C 205.203125 68.09375 204.871094 68.3125 204.605469 68.566406 C 204.414062 68.75 204.152344 68.949219 204.027344 69.191406 C 203.914062 69.421875 203.78125 69.625 203.605469 69.820312 C 203.046875 70.449219 202.125 69.53125 202.679688 68.898438 C 202.804688 68.753906 202.871094 68.574219 202.980469 68.421875 C 203.125 68.226562 203.28125 68.03125 203.453125 67.859375 C 203.632812 67.683594 203.816406 67.523438 204 67.355469 C 204.058594 67.304688 204.125 67.253906 204.183594 67.203125 C 204.21875 67.167969 204.234375 67.160156 204.242188 67.152344 C 204.242188 67.148438 204.25 67.140625 204.25 67.132812 C 204.160156 67.097656 204.066406 67.058594 203.96875 67.023438 C 202.847656 66.585938 201.847656 66.191406 201.847656 64.742188 C 201.847656 64.019531 203.160156 64.019531 203.160156 64.742188 C 203.160156 66.191406 207.523438 67.414062 207.652344 64.917969 Z M 211.636719 85.882812 C 211.554688 85.71875 211.496094 85.535156 211.429688 85.332031 C 211.355469 85.070312 211.269531 84.796875 211.191406 84.527344 C 211.148438 84.730469 211.109375 84.941406 211.09375 85.167969 C 211.066406 85.523438 211 85.875 210.917969 86.238281 C 211.167969 86.101562 211.402344 85.984375 211.636719 85.882812 Z M 215.65625 85.617188 C 215.703125 84.855469 215.972656 83.933594 215.949219 83.1875 C 215.90625 81.765625 215.898438 80.070312 215.550781 78.617188 C 215.132812 78.636719 214.710938 78.328125 214.910156 77.835938 C 215.476562 76.425781 215.375 74.6875 215.046875 73.203125 C 214.550781 70.972656 212.523438 70.464844 210.511719 70.386719 C 210.78125 71.433594 211.386719 72.402344 211.640625 73.464844 C 211.816406 74.195312 211.894531 74.914062 211.960938 75.648438 C 212.070312 75.691406 212.171875 75.746094 212.261719 75.835938 C 212.390625 75.964844 212.472656 76.117188 212.660156 76.167969 C 213.222656 76.3125 213.710938 76.566406 214.1875 76.90625 C 214.867188 77.386719 214.214844 78.523438 213.523438 78.027344 C 213.128906 77.746094 212.761719 77.574219 212.3125 77.429688 C 212.253906 77.40625 212.195312 77.390625 212.136719 77.371094 C 212.152344 78.488281 211.984375 79.542969 211.902344 80.640625 C 212.027344 80.820312 212.066406 81.042969 211.910156 81.28125 C 211.894531 81.304688 211.886719 81.332031 211.875 81.355469 C 211.875 81.425781 211.867188 81.492188 211.867188 81.566406 C 211.867188 82.382812 212.246094 82.914062 212.40625 83.671875 C 212.464844 83.949219 212.546875 85.203125 212.867188 85.367188 C 212.917969 85.398438 212.941406 85.433594 212.984375 85.46875 C 213.179688 85.425781 213.390625 85.382812 213.628906 85.347656 C 214.460938 85.226562 214.820312 86.484375 213.980469 86.609375 C 212.078125 86.898438 210.648438 88.066406 208.738281 88.375 C 207.0625 88.652344 205.945312 87.984375 204.671875 87.246094 C 204.585938 87.527344 204.445312 87.789062 204.226562 87.953125 C 204.378906 88.410156 204.027344 88.921875 203.582031 89.304688 C 203.679688 89.773438 203.484375 90.359375 203.484375 90.910156 C 203.484375 90.941406 203.476562 90.957031 203.46875 90.976562 C 203.527344 91.066406 203.582031 91.144531 203.660156 91.222656 C 203.667969 91.230469 203.667969 91.246094 203.671875 91.25 C 206.984375 89.550781 211.378906 91.238281 214.820312 89.832031 C 216.890625 88.992188 215.59375 86.882812 215.65625 85.617188 Z M 216.585938 77.472656 C 217.253906 79.316406 217.304688 81.761719 217.246094 83.71875 C 217.191406 85.367188 217.683594 87.941406 216.972656 89.519531 C 216.292969 91.027344 214.265625 91.621094 212.710938 91.699219 C 211.671875 91.757812 210.417969 91.664062 209.132812 91.636719 C 209.125 91.730469 209.105469 91.824219 209.046875 91.925781 C 208.890625 92.179688 208.746094 92.398438 208.519531 92.585938 C 208.257812 92.796875 208.148438 92.730469 208.105469 93.078125 C 208.082031 93.238281 208.046875 93.390625 207.996094 93.542969 C 208.835938 94.324219 208.082031 94.753906 207.953125 95.855469 C 207.867188 96.527344 207.144531 97.105469 207.171875 97.792969 C 207.238281 99.097656 207.558594 99.917969 207.390625 101.199219 C 207.332031 101.652344 207.128906 102.15625 206.757812 102.4375 C 205.648438 103.277344 206.011719 103.453125 205.691406 104.722656 C 205.4375 105.722656 204.285156 106.632812 204.25 107.597656 C 204.210938 108.367188 204.152344 108.96875 203.914062 109.699219 C 203.890625 109.773438 203.855469 109.816406 203.816406 109.871094 C 203.863281 110.574219 203.824219 111.273438 204.269531 111.996094 C 204.546875 112.4375 204.585938 112.65625 204.351562 113.117188 C 204.25 113.324219 204 113.4375 203.78125 113.4375 C 202.621094 113.4375 201.652344 113.265625 200.53125 113.082031 C 199.582031 115.496094 197.03125 117.183594 195.476562 119.175781 C 194.144531 120.878906 193.867188 123.84375 191.117188 123.539062 C 189.855469 123.402344 188.652344 123.144531 187.488281 122.667969 C 185.847656 122.011719 184.492188 122.167969 182.78125 121.929688 C 179.421875 121.464844 175.777344 121.371094 172.4375 122.097656 C 172.398438 122.148438 172.363281 122.191406 172.320312 122.234375 C 172.011719 122.515625 171.5625 122.617188 171.167969 122.722656 C 170.671875 122.859375 170.292969 123.132812 169.863281 123.363281 C 169.148438 124.339844 167.859375 123.726562 167.085938 124.785156 C 166.210938 125.964844 164.910156 126.105469 164.285156 127.652344 C 164.007812 128.347656 163.585938 129.40625 163.023438 129.90625 C 161.472656 131.304688 160.238281 131.507812 158.804688 129.894531 C 157.710938 128.652344 158.453125 127.015625 158.949219 125.707031 C 159.832031 123.371094 160.457031 121.046875 161.75 118.886719 C 162.675781 117.351562 163.214844 115.113281 164.996094 114.351562 C 165 114.351562 165.007812 114.351562 165.015625 114.351562 C 165.023438 114.128906 165.039062 113.910156 165.058594 113.699219 C 165.191406 112.410156 166 110.808594 166.960938 109.929688 C 167.8125 109.15625 168.726562 108.621094 169.402344 107.640625 C 169.847656 106.996094 170.308594 106.410156 170.878906 105.851562 C 172.765625 103.976562 175.988281 104.714844 177.859375 106.214844 C 177.921875 106.257812 177.949219 106.308594 177.984375 106.359375 C 178.316406 106.382812 178.632812 106.433594 178.941406 106.496094 C 178.992188 106.511719 179.027344 106.539062 179.074219 106.5625 C 180.761719 106.332031 182.398438 105.699219 184.015625 105.214844 C 185.152344 104.875 186.339844 104.785156 187.472656 104.429688 C 188.550781 104.089844 189.519531 103.875 190.476562 103.96875 C 190.460938 103.945312 190.445312 103.933594 190.441406 103.902344 C 190.015625 102.722656 189.6875 101.441406 188.464844 100.8125 C 187.960938 100.550781 187.859375 100.484375 187.652344 100.113281 C 187.273438 99.945312 187.035156 99.441406 187.410156 99.054688 C 188.855469 97.621094 189.417969 95.757812 190.003906 93.875 C 190.058594 93.6875 190.140625 93.535156 190.226562 93.398438 C 190.175781 93.324219 190.132812 93.238281 190.117188 93.128906 C 189.925781 91.875 189.558594 90.519531 190.023438 89.296875 C 190.285156 88.621094 191.109375 88.117188 191.25 87.40625 C 191.328125 86.941406 191.328125 86.40625 191.65625 86.035156 C 192.003906 85.625 192.421875 85.363281 192.875 85.203125 C 192.890625 85.132812 192.910156 85.050781 192.960938 84.96875 C 193.65625 83.875 191.941406 83.296875 192.648438 82.070312 C 193.113281 81.253906 192.390625 80.390625 192.832031 79.671875 C 193.378906 78.761719 192.953125 78.304688 192.683594 77.558594 C 191.351562 77.667969 190.3125 77.828125 189.03125 78.476562 C 188.003906 78.992188 187.050781 79.5 185.953125 79.863281 C 184.585938 80.320312 183.132812 80.5 181.761719 80.949219 C 180.976562 81.203125 180.050781 81.773438 179.183594 81.628906 C 176.980469 81.238281 175.660156 79.753906 173.785156 78.617188 C 171.46875 77.210938 168.644531 76.445312 166.648438 74.617188 C 166.203125 74.703125 165.730469 74.703125 165.195312 74.574219 C 163.820312 74.234375 163.023438 72.992188 162.632812 71.726562 C 162.09375 70.015625 162.46875 67.210938 162.960938 65.496094 C 163.316406 64.242188 164.351562 63.761719 165.519531 63.664062 C 165.691406 63.421875 165.875 63.183594 166.085938 62.960938 C 167.296875 61.664062 169.074219 61.359375 170.8125 61.515625 C 171.644531 61.59375 173.566406 62.03125 174.128906 62.648438 C 176.382812 65.140625 176.667969 68.863281 174.777344 71.683594 C 174.492188 72.09375 174.152344 72.429688 173.765625 72.695312 C 175.710938 73.957031 179.777344 76.160156 181.21875 74.421875 C 182.527344 72.847656 183.992188 71.777344 185.976562 71.175781 C 187.1875 70.8125 187.667969 70.429688 188.578125 69.546875 C 189.164062 68.980469 189.636719 68.609375 190.375 68.257812 C 191.695312 67.609375 193.429688 67.625 194.796875 68.066406 C 195.070312 67.957031 195.398438 67.9375 195.679688 67.871094 C 196.570312 67.675781 197.589844 67.582031 198.511719 67.734375 C 199.1875 66.640625 197.984375 65.457031 197.671875 64.429688 C 197.394531 63.539062 197.433594 62.699219 197.433594 61.769531 C 197.433594 60.210938 198.25 59.097656 199.488281 58.175781 C 201.082031 56.988281 207.28125 56.496094 207.214844 59.707031 C 207.199219 60.464844 208.398438 60.597656 208.542969 61.308594 C 208.675781 61.960938 209.121094 62.742188 209.070312 63.394531 C 208.964844 64.71875 209.140625 66.148438 207.980469 67.039062 C 207.515625 67.394531 207.09375 67.566406 206.675781 67.640625 C 206.691406 67.863281 206.785156 68.023438 206.886719 68.226562 C 207.296875 68.304688 207.867188 68.210938 208.230469 68.210938 C 208.8125 68.210938 209.257812 68.378906 209.789062 68.597656 C 209.964844 68.667969 210.074219 68.792969 210.144531 68.929688 C 210.191406 68.964844 210.226562 69.023438 210.261719 69.074219 C 212.273438 69.125 215.628906 69.597656 216.109375 71.929688 C 216.472656 73.683594 216.839844 75.515625 216.453125 77.253906 C 216.503906 77.320312 216.546875 77.386719 216.585938 77.472656 Z M 207.09375 94.46875 C 206.953125 94.355469 206.878906 94.214844 206.851562 94.078125 C 206.0625 93.820312 205.40625 92.796875 205 92.09375 C 204.613281 92.222656 204.242188 92.398438 203.90625 92.617188 C 203.839844 92.6875 203.765625 92.738281 203.679688 92.773438 C 203.578125 92.847656 203.476562 92.917969 203.382812 93.007812 C 203.191406 93.179688 202.980469 93.203125 202.785156 93.152344 C 202.753906 93.164062 202.722656 93.179688 202.695312 93.1875 C 202.335938 93.34375 202.019531 93.585938 201.652344 93.742188 C 201.324219 93.882812 200.953125 93.847656 200.757812 93.507812 C 200.59375 93.230469 200.660156 92.757812 200.988281 92.617188 C 201.398438 92.441406 201.753906 92.1875 202.164062 92.011719 C 202.273438 91.960938 202.382812 91.90625 202.5 91.839844 C 202.449219 91.773438 202.398438 91.699219 202.34375 91.636719 C 202.265625 91.535156 201.761719 91.65625 201.667969 91.664062 C 201.195312 91.738281 200.535156 91.78125 200.105469 92.019531 C 199.363281 92.433594 198.707031 91.3125 199.441406 90.898438 C 200.128906 90.507812 201.132812 90.382812 201.90625 90.324219 C 202.003906 90.316406 202.089844 90.316406 202.175781 90.308594 C 202.183594 90.160156 202.207031 90.003906 202.234375 89.855469 C 202.105469 89.816406 201.996094 89.746094 201.921875 89.636719 C 201.347656 89.5625 200.808594 89.441406 200.230469 89.441406 C 199.382812 89.441406 199.382812 88.136719 200.230469 88.136719 C 200.710938 88.136719 201.152344 88.195312 201.625 88.28125 C 201.929688 88.332031 202.25 88.367188 202.550781 88.445312 C 202.621094 88.398438 202.679688 88.347656 202.746094 88.289062 C 202.578125 88.195312 202.367188 88.078125 202.316406 88.058594 C 201.980469 87.898438 201.683594 87.695312 201.332031 87.554688 C 200.871094 87.375 200.355469 87.226562 199.875 87.105469 C 199.046875 86.914062 199.398438 85.652344 200.222656 85.847656 C 200.902344 86.007812 201.695312 86.214844 202.308594 86.558594 C 202.609375 86.722656 202.945312 86.890625 203.257812 87.070312 C 203.285156 87.035156 203.332031 87.007812 203.367188 86.976562 C 203.351562 86.964844 203.367188 86.914062 203.425781 86.757812 C 203.527344 86.507812 203.265625 86.382812 203.089844 86.238281 C 202.738281 85.925781 202.335938 85.679688 201.996094 85.355469 C 201.390625 84.769531 202.316406 83.847656 202.929688 84.433594 C 203.265625 84.753906 203.933594 85.132812 204.378906 85.59375 C 205.933594 86.390625 207.535156 87.5 209.273438 87.035156 C 209.273438 87.027344 209.273438 87.019531 209.277344 87.007812 C 209.761719 86.007812 209.5625 84.871094 209.945312 83.863281 C 210.253906 83.011719 210.226562 82.042969 210.527344 81.1875 C 210.539062 79.890625 210.855469 78.582031 210.824219 77.28125 C 210.824219 77.253906 210.839844 77.230469 210.847656 77.203125 C 210.816406 77.144531 210.789062 77.085938 210.78125 77.015625 C 210.613281 75.492188 210.578125 74.015625 209.964844 72.585938 C 209.542969 71.617188 209.164062 70.753906 209.082031 69.71875 C 208.644531 69.574219 208.257812 69.515625 207.738281 69.515625 C 207.53125 69.515625 207.273438 69.539062 207.027344 69.539062 C 206.800781 70.261719 206.421875 70.863281 205.691406 71.253906 C 205.128906 71.558594 204.476562 71.660156 203.917969 71.972656 C 203.53125 72.1875 203.242188 72.488281 202.886719 72.730469 C 202.5625 72.949219 202.265625 72.828125 202.089844 72.585938 C 202.011719 72.539062 201.941406 72.464844 201.890625 72.363281 C 201.691406 71.9375 201.054688 71.640625 200.644531 71.464844 C 200.25 71.292969 199.816406 71.167969 199.515625 70.847656 C 199.035156 70.335938 198.546875 69.691406 198.277344 69.015625 C 197.613281 68.90625 196.957031 69.023438 196.300781 69.117188 C 196.058594 69.148438 195.695312 69.132812 195.441406 69.21875 C 195.433594 69.234375 195.441406 69.246094 195.441406 69.261719 C 195.046875 71.753906 193.953125 74.015625 193.601562 76.496094 C 193.625 76.523438 193.648438 76.550781 193.660156 76.589844 C 193.742188 76.660156 193.808594 76.753906 193.84375 76.886719 C 194.136719 78.035156 194.769531 78.332031 194.304688 79.585938 C 193.996094 80.382812 194.308594 81.144531 194.164062 81.984375 C 194.089844 82.421875 193.699219 82.683594 194.171875 83.109375 C 194.433594 83.332031 194.515625 83.488281 194.617188 83.8125 C 194.726562 84.136719 194.589844 84.613281 194.410156 85.027344 C 195.621094 85.125 196.882812 85.675781 197.824219 86.230469 C 198.554688 86.664062 197.890625 87.789062 197.160156 87.355469 C 196.394531 86.898438 195.234375 86.253906 194.304688 86.308594 C 193.226562 86.390625 192.847656 86.796875 192.511719 87.746094 C 192.210938 88.617188 191.132812 89.390625 191.132812 90.324219 C 191.132812 90.941406 191.207031 91.535156 191.285156 92.136719 C 191.300781 92.113281 191.3125 92.097656 191.320312 92.078125 C 191.636719 91.476562 191.824219 91.109375 192.332031 90.636719 C 192.960938 90.070312 193.886719 90.992188 193.269531 91.558594 C 192.640625 92.128906 192.417969 92.945312 191.808594 93.550781 C 191.148438 94.203125 191 95.070312 190.722656 95.933594 C 190.46875 96.707031 190.167969 97.417969 189.789062 98.085938 C 190.433594 97.78125 191.042969 97.394531 191.714844 97.152344 C 193.492188 96.484375 194.8125 95.707031 196.710938 96.269531 C 197.984375 96.636719 199.226562 96.128906 200 97.097656 C 199.828125 95.773438 199.371094 94.476562 198.707031 93.421875 C 198.257812 92.703125 199.390625 92.050781 199.835938 92.757812 C 201.339844 95.152344 201.949219 98.5625 200.816406 101.28125 C 200.769531 101.382812 200.703125 101.460938 200.632812 101.535156 C 200.558594 101.644531 200.464844 101.722656 200.355469 101.765625 C 200.035156 104.742188 199.742188 107.933594 198.386719 110.5625 C 198.210938 110.894531 197.941406 111.160156 197.605469 111.378906 C 198.4375 111.605469 199.289062 111.5625 200.171875 111.707031 C 200.910156 111.828125 201.777344 112.121094 202.507812 112.128906 C 202.609375 112.132812 202.710938 112.132812 202.8125 112.132812 C 202.578125 111.722656 202.425781 111.328125 202.328125 110.832031 C 202.191406 110.121094 202.46875 109.464844 202.214844 108.75 C 201.980469 108.082031 201.734375 107.453125 201.601562 106.757812 C 201.511719 106.273438 201.539062 105.621094 201.644531 105.140625 C 201.878906 104.15625 201.625 103.445312 201.417969 102.5 C 201.246094 101.675781 202.507812 101.332031 202.6875 102.15625 C 202.894531 103.113281 203.265625 103.988281 203.03125 104.992188 C 202.84375 105.785156 202.914062 106.476562 203.082031 107.15625 C 203.191406 106.570312 203.382812 106.019531 203.914062 105.394531 C 204.640625 104.546875 203.941406 102.773438 205 102.082031 C 207.246094 100.613281 205.066406 98.875 205.953125 97.105469 C 206.019531 96.976562 206.9375 94.46875 207.09375 94.46875 "/></g><path style=" stroke:none;fill-rule:nonzero;fill:#000000;fill-opacity:1;" d="M 204.535156 99.339844 C 204.621094 100.171875 203.308594 100.164062 203.21875 99.339844 C 203.082031 98.121094 202.417969 97.171875 201.96875 96.070312 C 201.644531 95.289062 202.914062 94.953125 203.234375 95.722656 C 203.46875 96.304688 203.832031 96.808594 204.050781 97.394531 C 204.292969 98.035156 204.457031 98.664062 204.535156 99.339844 "/><path style=" stroke:none;fill-rule:nonzero;fill:#000000;fill-opacity:1;" d="M 202.25 68.636719 C 202.273438 69.480469 200.960938 69.472656 200.9375 68.636719 C 200.929688 68.40625 200.894531 68.210938 200.828125 67.996094 C 200.582031 67.191406 201.84375 66.84375 202.089844 67.644531 C 202.191406 67.972656 202.242188 68.300781 202.25 68.636719 "/><path style=" stroke:none;fill-rule:nonzero;fill:#000000;fill-opacity:1;" d="M 200.851562 62.597656 C 200.835938 62.648438 200.835938 62.703125 200.851562 62.753906 C 200.894531 63.015625 200.816406 62.902344 200.917969 62.914062 C 201.097656 62.945312 201.28125 63.003906 201.460938 63.003906 C 202.300781 63.007812 202.308594 64.3125 201.460938 64.304688 C 200.96875 64.300781 200.414062 64.199219 200.019531 63.886719 C 199.617188 63.574219 199.496094 63.023438 199.539062 62.53125 C 199.589844 62.03125 199.667969 61.621094 200.128906 61.328125 C 200.371094 61.171875 200.644531 61.25 200.910156 61.234375 C 201.152344 61.222656 201.359375 61.234375 201.5625 61.371094 C 202.242188 61.8125 201.644531 62.886719 200.96875 62.539062 C 201.011719 62.582031 200.9375 62.554688 200.859375 62.539062 C 200.851562 62.566406 200.851562 62.582031 200.851562 62.597656 "/><path style=" stroke:none;fill-rule:nonzero;fill:#000000;fill-opacity:1;" d="M 200.144531 84.160156 C 200.683594 84.804688 199.765625 85.730469 199.21875 85.078125 C 198.679688 84.433594 198.152344 83.71875 197.511719 83.160156 C 196.847656 82.585938 196.058594 81.710938 195.222656 81.398438 C 194.441406 81.109375 194.777344 79.847656 195.570312 80.148438 C 196.488281 80.484375 197.261719 81.238281 198 81.863281 C 198.808594 82.542969 199.464844 83.355469 200.144531 84.160156 "/><path style=" stroke:none;fill-rule:nonzero;fill:#000000;fill-opacity:1;" d="M 197.597656 84.015625 C 198.300781 84.476562 197.640625 85.609375 196.933594 85.136719 C 196.710938 84.984375 196.367188 84.664062 196.082031 84.636719 C 195.722656 84.601562 195.425781 84.371094 195.425781 83.984375 C 195.425781 83.660156 195.722656 83.296875 196.082031 83.332031 C 196.667969 83.398438 197.117188 83.695312 197.597656 84.015625 "/><path style=" stroke:none;fill-rule:nonzero;fill:#000000;fill-opacity:1;" d="M 188.550781 73.507812 C 189.300781 73.117188 189.964844 74.238281 189.214844 74.632812 C 188.332031 75.085938 187.601562 75.703125 186.640625 76.035156 C 185.589844 76.398438 184.453125 76.433594 183.402344 76.78125 C 182.601562 77.050781 182.257812 75.789062 183.058594 75.523438 C 184.113281 75.171875 185.238281 75.183594 186.289062 74.78125 C 187.136719 74.464844 187.769531 73.914062 188.550781 73.507812 "/><path style=" stroke:none;fill-rule:nonzero;fill:#000000;fill-opacity:1;" d="M 180.78125 77.695312 C 181.601562 77.515625 181.953125 78.777344 181.128906 78.957031 C 180.640625 79.066406 180.179688 79.230469 179.675781 79.246094 C 178.832031 79.28125 178.832031 77.976562 179.675781 77.941406 C 180.058594 77.933594 180.414062 77.777344 180.78125 77.695312 "/><path style=" stroke:none;fill-rule:nonzero;fill:#f9b59d;fill-opacity:1;" d="M 181.28125 118.246094 C 181.753906 118.097656 182.367188 117.957031 182.839844 117.8125 C 183.40625 117.640625 184.050781 117.722656 184.78125 117.722656 C 185.511719 117.722656 185.511719 116.636719 184.78125 116.636719 C 184.050781 116.636719 183.34375 116.550781 182.742188 116.710938 C 182.199219 116.851562 181.59375 117.03125 181.058594 117.199219 C 180.386719 117.410156 180.605469 118.460938 181.28125 118.246094 "/><path style=" stroke:none;fill-rule:nonzero;fill:#f9b59d;fill-opacity:1;" d="M 186.09375 118.246094 C 186.027344 118.183594 185.960938 118.117188 185.894531 118.050781 C 186.101562 118.71875 187.15625 118.433594 186.949219 117.761719 C 186.855469 117.464844 186.683594 117.292969 186.386719 117.199219 C 185.707031 116.992188 185.421875 118.042969 186.09375 118.246094 "/><path style=" stroke:none;fill-rule:nonzero;fill:#f9b59d;fill-opacity:1;" d="M 183.597656 108.394531 C 184.316406 108.371094 184.953125 108.039062 185.65625 107.921875 C 186.347656 107.804688 186.054688 106.757812 185.367188 106.875 C 184.769531 106.976562 184.207031 107.285156 183.597656 107.308594 C 182.894531 107.335938 182.890625 108.421875 183.597656 108.394531 "/><path style=" stroke:none;fill-rule:nonzero;fill:#f9b59d;fill-opacity:1;" d="M 187.519531 107.597656 C 187.980469 107.394531 188.617188 107.527344 189.117188 107.402344 C 189.777344 107.242188 190.820312 107.070312 191.472656 107.289062 C 192.140625 107.515625 192.425781 106.464844 191.761719 106.242188 C 191.023438 105.992188 190.136719 106.144531 189.375 106.257812 C 188.582031 106.375 187.703125 106.339844 186.964844 106.65625 C 186.320312 106.9375 186.878906 107.871094 187.519531 107.597656 "/><path style=" stroke:none;fill-rule:nonzero;fill:#f9b59d;fill-opacity:1;" d="M 193.074219 107.761719 C 193.105469 107.761719 193.136719 107.761719 193.164062 107.761719 C 193.871094 107.761719 193.871094 106.675781 193.164062 106.675781 C 193.136719 106.675781 193.105469 106.675781 193.074219 106.675781 C 192.371094 106.675781 192.371094 107.761719 193.074219 107.761719 "/><path style=" stroke:none;fill-rule:nonzero;fill:#f9b59d;fill-opacity:1;" d="M 209.570312 89.738281 C 209.570312 89.738281 210.832031 89.78125 211.453125 89.507812 C 212.148438 89.203125 212.828125 88.902344 213.515625 88.578125 C 214.148438 88.273438 213.585938 87.339844 212.953125 87.636719 C 212.414062 87.894531 211.890625 88.105469 211.351562 88.363281 C 210.734375 88.65625 210.296875 88.652344 209.570312 88.652344 C 208.839844 88.652344 208.839844 89.738281 209.570312 89.738281 C 209.570312 89.738281 208.839844 89.738281 209.570312 89.738281 "/><path style=" stroke:none;fill-rule:nonzero;fill:#f9b59d;fill-opacity:1;" d="M 214.492188 88.378906 C 215.199219 88.378906 215.199219 87.292969 214.492188 87.292969 C 213.789062 87.292969 213.789062 88.378906 214.492188 88.378906 "/><path style=" stroke:none;fill-rule:nonzero;fill:#f9b59d;fill-opacity:1;" d="M 212.214844 72.257812 C 212.613281 72.28125 213.042969 72.617188 213.285156 72.914062 C 213.472656 73.144531 213.863281 73.105469 214.058594 72.914062 C 214.285156 72.6875 214.246094 72.375 214.058594 72.144531 C 213.628906 71.617188 212.898438 71.207031 212.214844 71.171875 C 211.507812 71.136719 211.511719 72.222656 212.214844 72.257812 "/><path style=" stroke:none;fill-rule:nonzero;fill:#f9b59d;fill-opacity:1;" d="M 213.742188 74.363281 C 213.769531 74.398438 213.777344 74.441406 213.78125 74.488281 C 213.828125 74.78125 214.195312 74.9375 214.453125 74.867188 C 214.765625 74.78125 214.882812 74.488281 214.835938 74.195312 C 214.800781 73.964844 214.664062 73.769531 214.515625 73.59375 C 214.0625 73.058594 213.289062 73.832031 213.742188 74.363281 "/><path style=" stroke:none;fill-rule:nonzero;fill:#f9b59d;fill-opacity:1;" d="M 185.238281 74.339844 C 185.65625 74.328125 186.070312 74.242188 186.476562 74.140625 C 187.160156 73.972656 186.867188 72.925781 186.183594 73.09375 C 185.871094 73.171875 185.5625 73.246094 185.238281 73.253906 C 184.535156 73.273438 184.53125 74.363281 185.238281 74.339844 "/><path style=" stroke:none;fill-rule:nonzero;fill:#f9b59d;fill-opacity:1;" d="M 172.511719 75.316406 C 172.644531 75.367188 172.722656 75.445312 172.820312 75.542969 C 173.320312 76.035156 174.09375 75.265625 173.59375 74.773438 C 173.355469 74.539062 173.121094 74.386719 172.804688 74.269531 C 172.140625 74.027344 171.859375 75.078125 172.511719 75.316406 "/><path style=" stroke:none;fill-rule:nonzero;fill:#f9b59d;fill-opacity:1;" d="M 175.121094 76.96875 C 175.515625 77 175.875 77.28125 176.25 77.402344 C 176.710938 77.546875 177.089844 77.753906 177.582031 77.785156 C 178.285156 77.824219 178.28125 76.738281 177.582031 76.695312 C 176.710938 76.644531 175.996094 75.953125 175.121094 75.882812 C 174.417969 75.820312 174.421875 76.910156 175.121094 76.96875 "/><path style=" stroke:none;fill-rule:nonzero;fill:#f9b59d;fill-opacity:1;" d="M 201.550781 60.394531 C 201.980469 60.378906 202.40625 60.308594 202.84375 60.300781 C 203.171875 60.296875 203.53125 60.230469 203.824219 60.410156 C 204.425781 60.78125 204.976562 59.84375 204.378906 59.472656 C 203.558594 58.964844 202.449219 59.277344 201.550781 59.308594 C 200.847656 59.328125 200.847656 60.417969 201.550781 60.394531 "/><path style=" stroke:none;fill-rule:nonzero;fill:#f9b59d;fill-opacity:1;" d="M 200.09375 59.941406 C 200.0625 59.941406 200.03125 59.941406 200 59.941406 C 199.296875 59.941406 199.296875 61.027344 200 61.027344 C 200.03125 61.027344 200.0625 61.027344 200.09375 61.027344 C 200.796875 61.027344 200.796875 59.941406 200.09375 59.941406 "/><path style=" stroke:none;fill-rule:nonzero;fill:#ffffff;fill-opacity:1;" d="M 169.285156 64.394531 C 169.878906 64.667969 170.53125 64.59375 171.105469 64.941406 C 171.527344 65.191406 172.273438 65.34375 172.40625 65.882812 C 172.574219 66.5625 173.628906 66.273438 173.460938 65.59375 C 173.289062 64.898438 172.6875 64.511719 172.082031 64.207031 C 171.792969 64.054688 171.5 63.882812 171.195312 63.765625 C 170.769531 63.605469 170.234375 63.640625 169.835938 63.457031 C 169.199219 63.164062 168.644531 64.101562 169.285156 64.394531 "/><path style=" stroke:none;fill-rule:nonzero;fill:#ffffff;fill-opacity:1;" d="M 172.75 67.367188 C 172.75 67.519531 172.75 67.671875 172.75 67.820312 C 172.75 68.523438 173.84375 68.523438 173.84375 67.820312 C 173.84375 67.671875 173.84375 67.519531 173.84375 67.367188 C 173.84375 66.667969 172.75 66.667969 172.75 67.367188 "/><path style=" stroke:none;fill-rule:nonzero;fill:#ffffff;fill-opacity:1;" d="M 196.792969 70.269531 C 197.78125 71.925781 199.210938 73.230469 201.132812 73.6875 C 201.816406 73.851562 202.109375 72.804688 201.421875 72.640625 C 199.796875 72.25 198.574219 71.125 197.738281 69.722656 C 197.382812 69.117188 196.4375 69.664062 196.792969 70.269531 "/><path style=" stroke:none;fill-rule:nonzero;fill:#ffffff;fill-opacity:1;" d="M 203.882812 73.871094 C 204.800781 73.589844 205.589844 73.066406 206.421875 72.605469 C 206.820312 72.382812 207.226562 72.234375 207.601562 71.957031 C 207.890625 71.738281 207.960938 71.410156 208.226562 71.191406 C 208.773438 70.75 207.996094 69.988281 207.453125 70.425781 C 207.277344 70.566406 207.171875 70.730469 207.074219 70.929688 C 206.914062 71.242188 206.402344 71.429688 206.105469 71.5625 C 205.238281 71.945312 204.507812 72.542969 203.59375 72.820312 C 202.921875 73.027344 203.207031 74.078125 203.882812 73.871094 "/><path style=" stroke:none;fill-rule:nonzero;fill:#ffffff;fill-opacity:1;" d="M 196.0625 73.398438 C 196.242188 72.949219 196.402344 72.5 196.644531 72.078125 C 196.996094 71.472656 196.050781 70.921875 195.703125 71.53125 C 195.414062 72.03125 195.222656 72.574219 195.007812 73.109375 C 194.898438 73.386719 195.128906 73.707031 195.390625 73.777344 C 195.703125 73.863281 195.953125 73.675781 196.0625 73.398438 "/><path style=" stroke:none;fill-rule:nonzero;fill:#ffffff;fill-opacity:1;" d="M 209.570312 74.792969 C 209.558594 74.582031 209.492188 74.375 209.480469 74.160156 C 209.460938 73.921875 209.460938 73.699219 209.367188 73.472656 C 209.257812 73.199219 209.007812 73.007812 208.695312 73.09375 C 208.433594 73.164062 208.203125 73.484375 208.316406 73.761719 C 208.386719 73.933594 208.378906 74.078125 208.390625 74.257812 C 208.40625 74.4375 208.464844 74.613281 208.476562 74.792969 C 208.523438 75.492188 209.621094 75.496094 209.570312 74.792969 "/><path style=" stroke:none;fill-rule:nonzero;fill:#ffffff;fill-opacity:1;" d="M 208.585938 86.027344 C 208.964844 85.242188 209.179688 84.441406 209.296875 83.582031 C 209.335938 83.285156 209.019531 83.035156 208.75 83.035156 C 208.421875 83.035156 208.242188 83.289062 208.203125 83.582031 C 208.113281 84.238281 207.929688 84.882812 207.640625 85.480469 C 207.335938 86.105469 208.277344 86.660156 208.585938 86.027344 "/><path style=" stroke:none;fill-rule:nonzero;fill:#ffffff;fill-opacity:1;" d="M 206.800781 85.914062 C 207.046875 85.816406 207.152344 85.6875 207.308594 85.484375 C 207.492188 85.25 207.347656 84.875 207.113281 84.738281 C 206.832031 84.578125 206.546875 84.703125 206.363281 84.9375 C 206.324219 84.984375 206.285156 85.039062 206.25 85.089844 C 206.359375 85.007812 206.464844 84.921875 206.574219 84.839844 C 206.554688 84.847656 206.53125 84.859375 206.511719 84.867188 C 206.230469 84.976562 206.042969 85.226562 206.125 85.535156 C 206.199219 85.796875 206.523438 86.023438 206.800781 85.914062 "/><path style=" stroke:none;fill-rule:nonzero;fill:#ffffff;fill-opacity:1;" d="M 192.363281 95.808594 C 192.6875 95.199219 193.175781 94.742188 193.425781 94.085938 C 193.722656 93.320312 194.542969 92.527344 195.101562 91.933594 C 195.582031 91.417969 194.8125 90.652344 194.328125 91.164062 C 193.785156 91.75 193.226562 92.390625 192.769531 93.046875 C 192.523438 93.390625 192.390625 93.769531 192.191406 94.136719 C 191.976562 94.535156 191.632812 94.851562 191.417969 95.257812 C 191.089844 95.878906 192.03125 96.429688 192.363281 95.808594 "/><path style=" stroke:none;fill-rule:nonzero;fill:#ffffff;fill-opacity:1;" d="M 194.992188 89.9375 C 195.320312 89.71875 195.636719 89.488281 195.921875 89.214844 C 196.433594 88.730469 195.660156 87.960938 195.148438 88.445312 C 194.929688 88.660156 194.691406 88.828125 194.4375 88.996094 C 193.855469 89.382812 194.402344 90.328125 194.992188 89.9375 "/><path style=" stroke:none;fill-rule:nonzero;fill:#ffffff;fill-opacity:1;" d="M 195.082031 95.277344 C 195.386719 95.140625 195.582031 94.84375 195.730469 94.554688 C 195.914062 94.199219 196.148438 93.875 196.371094 93.542969 C 196.765625 92.957031 195.816406 92.417969 195.429688 92.996094 C 195.238281 93.277344 195.003906 93.5625 194.855469 93.867188 C 194.773438 94.03125 194.707031 94.261719 194.53125 94.339844 C 193.890625 94.636719 194.445312 95.570312 195.082031 95.277344 "/><path style=" stroke:none;fill-rule:nonzero;fill:#ffffff;fill-opacity:1;" d="M 204.648438 96.257812 C 204.851562 96.238281 204.671875 96.222656 204.6875 96.25 C 204.730469 96.320312 204.738281 96.382812 204.742188 96.441406 C 204.769531 97.140625 205.863281 97.140625 205.832031 96.441406 C 205.808594 95.800781 205.382812 95.089844 204.648438 95.171875 C 204.351562 95.207031 204.101562 95.394531 204.101562 95.714844 C 204.101562 95.988281 204.351562 96.292969 204.648438 96.257812 "/><path style=" stroke:none;fill-rule:nonzero;fill:#ffffff;fill-opacity:1;" d="M 201.347656 109.988281 C 201.542969 109.304688 201.640625 108.5625 201.640625 107.851562 C 201.644531 107.152344 200.550781 107.152344 200.550781 107.851562 C 200.546875 108.464844 200.464844 109.105469 200.296875 109.699219 C 200.101562 110.375 201.15625 110.664062 201.347656 109.988281 "/><path style=" stroke:none;fill-rule:nonzero;fill:#ff4c00;fill-opacity:1;" d="M 170.4375 110.640625 C 171.015625 110.402344 171.375 109.992188 171.769531 109.523438 C 172.246094 108.957031 172.925781 108.613281 173.410156 108.054688 C 173.871094 107.527344 173.101562 106.757812 172.636719 107.285156 C 172.25 107.730469 171.75 108.046875 171.308594 108.433594 C 170.917969 108.773438 170.640625 109.390625 170.144531 109.589844 C 169.5 109.851562 169.78125 110.90625 170.4375 110.640625 "/><path style=" stroke:none;fill-rule:nonzero;fill:#ff4c00;fill-opacity:1;" d="M 174.390625 107.761719 C 175.097656 107.761719 175.097656 106.675781 174.390625 106.675781 C 173.683594 106.675781 173.683594 107.761719 174.390625 107.761719 "/><path style=" stroke:none;fill-rule:nonzero;fill:#ff4c00;fill-opacity:1;" d="M 166.355469 120.082031 C 166.476562 120.324219 166.621094 120.535156 166.804688 120.734375 C 167.285156 121.25 168.054688 120.480469 167.578125 119.96875 C 167.457031 119.835938 167.378906 119.691406 167.300781 119.53125 C 166.980469 118.90625 166.039062 119.457031 166.355469 120.082031 "/><path style=" stroke:none;fill-rule:nonzero;fill:#ff4c00;fill-opacity:1;" d="M 167.355469 118.996094 C 167.421875 119.082031 167.472656 119.175781 167.539062 119.265625 C 167.71875 119.503906 168.007812 119.625 168.289062 119.460938 C 168.523438 119.324219 168.660156 118.957031 168.484375 118.71875 C 168.417969 118.628906 168.367188 118.535156 168.300781 118.445312 C 168.125 118.210938 167.832031 118.089844 167.554688 118.25 C 167.320312 118.390625 167.179688 118.757812 167.355469 118.996094 "/><g style="fill:#000000;fill-opacity:1;"><g transform="translate(131.954512, 280.340636)"><path style="stroke:none" d="M 10.671875 0.171875 L 9.3125 0.171875 L 5.203125 -6.515625 L 2.921875 -3.875 L 2.921875 0.171875 L 1.65625 0.171875 L 1.65625 -12.390625 L 2.921875 -12.390625 L 2.921875 -5.5625 L 8.890625 -12.390625 L 10.296875 -12.390625 L 6 -7.40625 Z M 10.671875 0.171875 "/></g></g><g style="fill:#000000;fill-opacity:1;"><g transform="translate(143.237299, 280.340636)"><path style="stroke:none" d="M 11.15625 -6.125 C 11.15625 -5.238281 11.078125 -4.40625 10.921875 -3.625 C 10.773438 -2.851562 10.519531 -2.171875 10.15625 -1.578125 C 9.800781 -0.992188 9.296875 -0.53125 8.640625 -0.1875 C 7.992188 0.144531 7.164062 0.3125 6.15625 0.3125 C 5.113281 0.3125 4.269531 0.132812 3.625 -0.21875 C 2.976562 -0.582031 2.484375 -1.066406 2.140625 -1.671875 C 1.796875 -2.273438 1.5625 -2.960938 1.4375 -3.734375 C 1.320312 -4.503906 1.265625 -5.300781 1.265625 -6.125 C 1.265625 -6.976562 1.332031 -7.785156 1.46875 -8.546875 C 1.613281 -9.316406 1.863281 -10 2.21875 -10.59375 C 2.582031 -11.1875 3.082031 -11.65625 3.71875 -12 C 4.351562 -12.34375 5.164062 -12.515625 6.15625 -12.515625 C 7.1875 -12.515625 8.03125 -12.332031 8.6875 -11.96875 C 9.34375 -11.613281 9.847656 -11.132812 10.203125 -10.53125 C 10.566406 -9.9375 10.816406 -9.253906 10.953125 -8.484375 C 11.085938 -7.722656 11.15625 -6.9375 11.15625 -6.125 Z M 9.828125 -6.125 C 9.828125 -6.800781 9.785156 -7.457031 9.703125 -8.09375 C 9.617188 -8.726562 9.445312 -9.300781 9.1875 -9.8125 C 8.9375 -10.332031 8.566406 -10.738281 8.078125 -11.03125 C 7.597656 -11.332031 6.957031 -11.484375 6.15625 -11.484375 C 5.320312 -11.484375 4.660156 -11.316406 4.171875 -10.984375 C 3.691406 -10.660156 3.332031 -10.234375 3.09375 -9.703125 C 2.863281 -9.171875 2.710938 -8.585938 2.640625 -7.953125 C 2.578125 -7.316406 2.546875 -6.703125 2.546875 -6.109375 C 2.546875 -5.429688 2.582031 -4.773438 2.65625 -4.140625 C 2.738281 -3.515625 2.898438 -2.941406 3.140625 -2.421875 C 3.378906 -1.910156 3.738281 -1.503906 4.21875 -1.203125 C 4.695312 -0.898438 5.335938 -0.75 6.140625 -0.75 C 6.972656 -0.75 7.632812 -0.910156 8.125 -1.234375 C 8.625 -1.554688 8.992188 -1.976562 9.234375 -2.5 C 9.484375 -3.03125 9.644531 -3.613281 9.71875 -4.25 C 9.789062 -4.882812 9.828125 -5.507812 9.828125 -6.125 Z M 9.828125 -6.125 "/></g></g><g style="fill:#000000;fill-opacity:1;"><g transform="translate(155.777505, 280.340636)"><path style="stroke:none" d="M 10.65625 -8.78125 C 10.65625 -7.925781 10.414062 -7.179688 9.9375 -6.546875 C 9.46875 -5.910156 8.738281 -5.488281 7.75 -5.28125 L 7.78125 -5.28125 L 11.015625 0.171875 L 9.59375 0.171875 L 6.5 -5.171875 L 2.953125 -5.171875 L 2.953125 0.171875 L 1.6875 0.171875 L 1.6875 -12.390625 L 6.578125 -12.390625 C 7.503906 -12.390625 8.269531 -12.226562 8.875 -11.90625 C 9.476562 -11.582031 9.925781 -11.148438 10.21875 -10.609375 C 10.507812 -10.066406 10.65625 -9.457031 10.65625 -8.78125 Z M 9.40625 -8.765625 C 9.414062 -9.566406 9.203125 -10.203125 8.765625 -10.671875 C 8.335938 -11.140625 7.695312 -11.375 6.84375 -11.375 L 2.953125 -11.375 L 2.953125 -6.203125 L 6.890625 -6.203125 C 7.722656 -6.203125 8.347656 -6.453125 8.765625 -6.953125 C 9.191406 -7.453125 9.40625 -8.054688 9.40625 -8.765625 Z M 9.40625 -8.765625 "/></g></g><g style="fill:#000000;fill-opacity:1;"><g transform="translate(167.655018, 280.340636)"><path style="stroke:none" d="M 9.671875 0.171875 L 1.6875 0.171875 L 1.6875 -12.390625 L 9.671875 -12.390625 L 9.671875 -11.375 L 2.953125 -11.375 L 2.953125 -6.703125 L 8.765625 -6.703125 L 8.765625 -5.625 L 2.953125 -5.625 L 2.953125 -0.84375 L 9.671875 -0.84375 Z M 9.671875 0.171875 "/></g></g><g style="fill:#000000;fill-opacity:1;"><g transform="translate(178.241122, 280.340636)"><path style="stroke:none" d="M 10.96875 0.171875 L 9.65625 0.171875 L 8.453125 -3.09375 L 2.75 -3.09375 L 1.578125 0.171875 L 0.3125 0.171875 L 4.96875 -12.390625 L 6.3125 -12.390625 Z M 8.140625 -4.09375 L 5.640625 -11.046875 L 3.109375 -4.09375 Z M 8.140625 -4.09375 "/></g></g><g style="fill:#000000;fill-opacity:1;"><g transform="translate(189.829764, 280.340636)"><path style="stroke:none" d="M 10.9375 0.171875 L 9.84375 0.171875 L 2.921875 -10.203125 L 2.921875 0.171875 L 1.6875 0.171875 L 1.6875 -12.390625 L 2.8125 -12.390625 L 9.71875 -1.984375 L 9.71875 -12.390625 L 10.9375 -12.390625 Z M 10.9375 0.171875 "/></g></g><g style="fill:#000000;fill-opacity:1;"><g transform="translate(202.437937, 280.340636)"><path style="stroke:none" d=""/></g></g><g style="fill:#000000;fill-opacity:1;"><g transform="translate(207.535581, 280.340636)"><path style="stroke:none" d="M 10.9375 0.171875 L 9.84375 0.171875 L 2.921875 -10.203125 L 2.921875 0.171875 L 1.6875 0.171875 L 1.6875 -12.390625 L 2.8125 -12.390625 L 9.71875 -1.984375 L 9.71875 -12.390625 L 10.9375 -12.390625 Z M 10.9375 0.171875 "/></g></g><g style="fill:#000000;fill-opacity:1;"><g transform="translate(220.143754, 280.340636)"><path style="stroke:none" d="M 10.40625 -3.3125 C 10.40625 -2.21875 10.078125 -1.363281 9.421875 -0.75 C 8.773438 -0.132812 7.863281 0.171875 6.6875 0.171875 L 1.6875 0.171875 L 1.6875 -12.390625 L 6.359375 -12.390625 C 7.554688 -12.390625 8.488281 -12.078125 9.15625 -11.453125 C 9.832031 -10.828125 10.171875 -10.019531 10.171875 -9.03125 C 10.171875 -8.625 10.082031 -8.226562 9.90625 -7.84375 C 9.726562 -7.46875 9.507812 -7.140625 9.25 -6.859375 C 8.988281 -6.585938 8.71875 -6.398438 8.4375 -6.296875 C 8.738281 -6.160156 9.039062 -5.945312 9.34375 -5.65625 C 9.65625 -5.375 9.910156 -5.035156 10.109375 -4.640625 C 10.304688 -4.242188 10.40625 -3.800781 10.40625 -3.3125 Z M 8.921875 -9.078125 C 8.921875 -9.472656 8.828125 -9.84375 8.640625 -10.1875 C 8.460938 -10.53125 8.203125 -10.8125 7.859375 -11.03125 C 7.523438 -11.257812 7.113281 -11.375 6.625 -11.375 L 2.953125 -11.375 L 2.953125 -6.75 L 6.75 -6.75 C 7.238281 -6.75 7.640625 -6.867188 7.953125 -7.109375 C 8.273438 -7.347656 8.515625 -7.644531 8.671875 -8 C 8.835938 -8.351562 8.921875 -8.710938 8.921875 -9.078125 Z M 9.09375 -3.28125 C 9.09375 -3.6875 9.003906 -4.078125 8.828125 -4.453125 C 8.660156 -4.828125 8.40625 -5.128906 8.0625 -5.359375 C 7.71875 -5.597656 7.285156 -5.71875 6.765625 -5.71875 L 2.953125 -5.71875 L 2.953125 -0.84375 L 6.890625 -0.84375 C 7.367188 -0.84375 7.773438 -0.957031 8.109375 -1.1875 C 8.441406 -1.425781 8.6875 -1.726562 8.84375 -2.09375 C 9.007812 -2.46875 9.09375 -2.863281 9.09375 -3.28125 Z M 9.09375 -3.28125 "/></g></g><g style="fill:#000000;fill-opacity:1;"><g transform="translate(231.443535, 280.340636)"><path style="stroke:none" d="M 10.96875 0.171875 L 9.65625 0.171875 L 8.453125 -3.09375 L 2.75 -3.09375 L 1.578125 0.171875 L 0.3125 0.171875 L 4.96875 -12.390625 L 6.3125 -12.390625 Z M 8.140625 -4.09375 L 5.640625 -11.046875 L 3.109375 -4.09375 Z M 8.140625 -4.09375 "/></g></g><g style="fill:#000000;fill-opacity:1;"><g transform="translate(169.384197, 303.590634)"><path style="stroke:none" d="M 9.3125 -3.21875 C 9.3125 -2.488281 9.117188 -1.859375 8.734375 -1.328125 C 8.347656 -0.804688 7.820312 -0.398438 7.15625 -0.109375 C 6.488281 0.171875 5.726562 0.3125 4.875 0.3125 C 3.976562 0.3125 3.207031 0.179688 2.5625 -0.078125 C 1.925781 -0.335938 1.320312 -0.742188 0.75 -1.296875 L 1.5 -2.171875 C 1.925781 -1.734375 2.394531 -1.382812 2.90625 -1.125 C 3.425781 -0.875 4.082031 -0.75 4.875 -0.75 C 5.820312 -0.75 6.578125 -0.957031 7.140625 -1.375 C 7.710938 -1.789062 8 -2.390625 8 -3.171875 C 8 -3.535156 7.941406 -3.878906 7.828125 -4.203125 C 7.722656 -4.523438 7.5 -4.800781 7.15625 -5.03125 C 6.8125 -5.257812 6.296875 -5.421875 5.609375 -5.515625 L 4.078125 -5.6875 C 3.535156 -5.757812 3.019531 -5.921875 2.53125 -6.171875 C 2.050781 -6.429688 1.660156 -6.796875 1.359375 -7.265625 C 1.066406 -7.742188 0.921875 -8.332031 0.921875 -9.03125 C 0.921875 -10.101562 1.289062 -10.953125 2.03125 -11.578125 C 2.769531 -12.210938 3.765625 -12.53125 5.015625 -12.53125 C 5.785156 -12.53125 6.460938 -12.425781 7.046875 -12.21875 C 7.628906 -12.019531 8.179688 -11.664062 8.703125 -11.15625 L 7.859375 -10.390625 C 7.460938 -10.835938 7.015625 -11.132812 6.515625 -11.28125 C 6.023438 -11.4375 5.515625 -11.515625 4.984375 -11.515625 C 4.109375 -11.515625 3.421875 -11.300781 2.921875 -10.875 C 2.429688 -10.457031 2.1875 -9.851562 2.1875 -9.0625 C 2.1875 -8.375 2.367188 -7.847656 2.734375 -7.484375 C 3.109375 -7.128906 3.679688 -6.90625 4.453125 -6.8125 L 5.90625 -6.640625 C 6.96875 -6.515625 7.800781 -6.171875 8.40625 -5.609375 C 9.007812 -5.046875 9.3125 -4.25 9.3125 -3.21875 Z M 9.3125 -3.21875 "/></g></g><g style="fill:#000000;fill-opacity:1;"><g transform="translate(180.140224, 303.590634)"><path style="stroke:none" d="M 2.984375 0.171875 L 1.6875 0.171875 L 1.6875 -12.390625 L 2.984375 -12.390625 Z M 2.984375 0.171875 "/></g></g><g style="fill:#000000;fill-opacity:1;"><g transform="translate(184.779086, 303.590634)"><path style="stroke:none" d="M 9.671875 -11.375 L 5.6875 -11.375 L 5.6875 0.171875 L 4.390625 0.171875 L 4.390625 -11.375 L 0.40625 -11.375 L 0.40625 -12.390625 L 9.671875 -12.390625 Z M 9.671875 -11.375 "/></g></g><g style="fill:#000000;fill-opacity:1;"><g transform="translate(195.008364, 303.590634)"><path style="stroke:none" d="M 9.671875 0.171875 L 1.6875 0.171875 L 1.6875 -12.390625 L 9.671875 -12.390625 L 9.671875 -11.375 L 2.953125 -11.375 L 2.953125 -6.703125 L 8.765625 -6.703125 L 8.765625 -5.625 L 2.953125 -5.625 L 2.953125 -0.84375 L 9.671875 -0.84375 Z M 9.671875 0.171875 "/></g></g></g></svg>